<svg aria-hidden="true" style="position: absolute; width: 0; height: 0; overflow: hidden;" version="1.1" xmlns="http://www.w3.org/2000/svg" xmlns:xlink="http://www.w3.org/1999/xlink">
<defs>
<symbol id="i-globe-outline" viewBox="0 0 24 24">
<path d="M11 6c2.206 0 4 1.794 4 4s-1.794 4-4 4c-2.204 0-3.998-1.794-3.998-4s1.794-4 3.998-4M11 4c-3.314 0-5.998 2.686-5.998 6s2.684 6 5.998 6c3.312 0 6-2.688 6-6 0-3.314-2.688-6-6-6z"></path>
<path d="M17 20h-4v-1.23c1.641-0.371 3.146-1.188 4.363-2.406 1.699-1.699 2.637-3.96 2.637-6.363 0-2.067-0.691-4.028-1.968-5.619l0.675-0.673c0.391-0.391 0.391-1.023 0.001-1.415-0.392-0.392-1.024-0.39-1.415-0.001l-2.052 2.049 0.708 0.708c1.322 1.321 2.051 3.080 2.051 4.95s-0.729 3.627-2.051 4.949-3.079 2.051-4.949 2.051-3.627-0.729-4.949-2.051c-0.391-0.391-1.023-0.391-1.414 0-0.391 0.39-0.391 1.023 0 1.414 1.699 1.699 3.959 2.637 6.363 2.637v1h-4c-0.553 0-1 0.447-1 1s0.447 1 1 1h10c0.553 0 1-0.447 1-1s-0.447-1-1-1z"></path>
</symbol>
<symbol id="i-arrow-sync-outline" viewBox="0 0 24 24">
<path d="M21.5 12.473c0-2.495-0.818-4.426-2.653-6.259-0.309-0.309-0.676-0.533-1.073-0.682l-4.653-4.653c-0.566-0.567-1.32-0.879-2.121-0.879s-1.555 0.312-2.121 0.879c-0.567 0.566-0.879 1.32-0.879 2.121 0 0.277 0.037 0.549 0.11 0.809-1.029 0.461-1.974 1.12-2.827 1.974-1.795 1.793-2.783 4.178-2.783 6.717 0 2.495 0.818 4.426 2.653 6.259 0.299 0.298 0.652 0.521 1.034 0.669l4.692 4.693c0.566 0.567 1.32 0.879 2.121 0.879s1.555-0.312 2.121-0.879c0.567-0.566 0.879-1.32 0.879-2.121 0-0.286-0.040-0.566-0.117-0.834 1.031-0.461 1.978-1.121 2.833-1.975 1.796-1.794 2.784-4.18 2.784-6.718zM12.37 19.957l1.337 1.336c0.391 0.391 0.391 1.023 0 1.414-0.195 0.195-0.451 0.293-0.707 0.293s-0.512-0.098-0.707-0.293l-3.707-3.707 3.707-3.707c0.195-0.195 0.451-0.293 0.707-0.293s0.512 0.098 0.707 0.293c0.391 0.391 0.391 1.023 0 1.414l-1.247 1.247c1.351-0.091 2.425-0.59 3.428-1.593 1.039-1.038 1.611-2.419 1.611-3.888 0-1.422-0.401-2.351-1.48-3.429-0.391-0.391-0.391-1.023 0-1.415 0.195-0.195 0.451-0.293 0.708-0.293s0.512 0.098 0.707 0.292c1.448 1.447 2.066 2.896 2.066 4.844 0 2.004-0.78 3.887-2.197 5.303-1.39 1.39-3.010 2.1-4.933 2.182zM11.604 5.018l-1.311-1.311c-0.391-0.391-0.391-1.023 0-1.414 0.195-0.195 0.451-0.293 0.707-0.293s0.512 0.098 0.707 0.293l3.707 3.707-3.707 3.707c-0.195 0.195-0.451 0.293-0.707 0.293s-0.512-0.098-0.707-0.293c-0.391-0.391-0.391-1.023 0-1.414l1.275-1.275c-1.365 0.086-2.448 0.584-3.456 1.593-1.040 1.039-1.612 2.42-1.612 3.889 0 1.422 0.401 2.351 1.48 3.429 0.391 0.391 0.391 1.023 0 1.415-0.195 0.195-0.452 0.293-0.708 0.293s-0.512-0.098-0.707-0.292c-1.447-1.448-2.065-2.897-2.065-4.845 0-2.004 0.78-3.887 2.197-5.303 1.382-1.383 2.993-2.093 4.907-2.179zM8.688 15.222c-0.888-0.887-1.188-1.574-1.188-2.722 0-1.202 0.468-2.332 1.318-3.181 0.063-0.062 0.124-0.122 0.187-0.179 0.033 0.481 0.236 0.93 0.581 1.274 0.378 0.378 0.88 0.586 1.414 0.586s1.036-0.208 1.414-0.586l2.339-2.339c-0.078 0.596 0.104 1.219 0.56 1.675 0.888 0.887 1.188 1.574 1.188 2.722 0 1.202-0.468 2.332-1.318 3.181-0.062 0.062-0.125 0.123-0.188 0.181-0.039-0.472-0.241-0.91-0.579-1.248-0.38-0.378-0.882-0.586-1.416-0.586s-1.036 0.208-1.414 0.586l-2.342 2.342c0.089-0.605-0.093-1.242-0.556-1.706z"></path>
</symbol>
<symbol id="i-device-tablet" viewBox="0 0 24 24">
<path d="M17 4h-9c-0.55 0-1 0.45-1 1v12c0 0.55 0.45 1 1 1h3.5c0 0.553 0.448 1 1 1s1-0.447 1-1h3.5c0.55 0 1-0.45 1-1v-12c0-0.55-0.45-1-1-1zM17 17h-9v-12h9v12z"></path>
<path d="M18 1h-11c-1.654 0-3 1.346-3 3v15c0 1.654 1.346 3 3 3h11c1.654 0 3-1.346 3-3v-15c0-1.654-1.346-3-3-3zM19 19c0 0.551-0.449 1-1 1h-11c-0.551 0-1-0.449-1-1v-15c0-0.551 0.449-1 1-1h11c0.551 0 1 0.449 1 1v15z"></path>
</symbol>
<symbol id="i-device-phone" viewBox="0 0 24 24">
<path d="M15 3h-7c-1.654 0-3 1.346-3 3v12c0 1.654 1.346 3 3 3h7c1.654 0 3-1.346 3-3v-12c0-1.654-1.346-3-3-3zM16 18c0 0.551-0.449 1-1 1h-7c-0.551 0-1-0.449-1-1v-12c0-0.551 0.449-1 1-1h7c0.551 0 1 0.449 1 1v12z"></path>
<path d="M14 6h-5c-0.55 0-1 0.45-1 1v9c0 0.55 0.45 1 1 1h1.5c0 0.553 0.448 1 1 1s1-0.447 1-1h1.5c0.55 0 1-0.45 1-1v-9c0-0.55-0.45-1-1-1zM14 16h-5v-9h5v9z"></path>
</symbol>
<symbol id="i-device-laptop" viewBox="0 0 24 24">
<path d="M21.989 16.049c0.009-0.315 0.011-0.657 0.011-1.049v-9c0-1.654-1.346-3-3-3h-14c-1.654 0-3 1.346-3 3v9c0 0.385 0.002 0.73 0.012 1.049-1.145 0.228-2.012 1.24-2.012 2.451 0 1.378 1.122 2.5 2.5 2.5h19c1.378 0 2.5-1.122 2.5-2.5 0-1.211-0.866-2.222-2.011-2.451zM4 6c0-0.551 0.449-1 1-1h14c0.551 0 1 0.449 1 1v9c0 0.388-0.005 0.726-0.014 1h-0.986v-9c0-0.55-0.45-1-1-1h-12c-0.55 0-1 0.45-1 1v9h-0.98c-0.012-0.264-0.020-0.599-0.020-1v-9zM18 16h-12v-9h12v9zM21.5 19h-19c-0.271 0-0.5-0.229-0.5-0.5s0.229-0.5 0.5-0.5h19c0.271 0 0.5 0.229 0.5 0.5s-0.229 0.5-0.5 0.5z"></path>
</symbol>
<symbol id="i-device-desktop" viewBox="0 0 24 24">
<path d="M21 1h-18c-1.654 0-3 1.346-3 3v11c0 1.654 1.346 3 3 3h6v2h-3c-0.552 0-1 0.448-1 1s0.448 1 1 1h12c0.552 0 1-0.448 1-1s-0.448-1-1-1h-3v-2h6c1.654 0 3-1.346 3-3v-11c0-1.654-1.346-3-3-3zM14 20h-4v-2h4v2zM22 15c0 0.551-0.449 1-1 1h-18c-0.551 0-1-0.449-1-1v-11c0-0.551 0.449-1 1-1h18c0.551 0 1 0.449 1 1v11z"></path>
<path d="M20 4h-16c-0.55 0-1 0.45-1 1v8c0 0.55 0.45 1 1 1h16c0.55 0 1-0.45 1-1v-8c0-0.55-0.45-1-1-1zM20 13h-16v-8h16v8z"></path>
</symbol>
<symbol id="i-headphones" viewBox="0 0 24 24">
<path d="M21 13c0-4.963-4.037-9-9-9s-9 4.037-9 9v2.6c0 0.040 0.019 0.074 0.023 0.113-0.013 0.243-0.023 0.5-0.023 0.787v2c0 1.93 1.57 3.5 3.5 3.5s3.5-1.57 3.5-3.5v-2c0-1.511-0.83-2.79-1.982-3.278 0.095-2.122 1.837-3.823 3.982-3.823s3.887 1.7 3.982 3.822c-1.152 0.49-1.982 1.768-1.982 3.279v2c0 1.93 1.57 3.5 3.5 3.5s3.5-1.57 3.5-3.5v-2c0-0.287-0.010-0.544-0.023-0.787 0.004-0.039 0.023-0.073 0.023-0.113v-2.6zM5 13c0-1.586 0.538-3.046 1.432-4.221l0.89 0.889c-0.742 0.928-1.218 2.075-1.302 3.332-0.020 0-0.020 1-0.020 1h-1v-1zM8 18.5c0 0.827-0.673 1.5-1.5 1.5s-1.5-0.673-1.5-1.5v-2c0-0.666 0.057-1.176 0.114-1.5h1.886c0.473 0 1 0.616 1 1.5v2zM15.77 9.162l-0.354 0.354c-0.912-0.913-2.125-1.416-3.416-1.416s-2.504 0.503-3.417 1.416l-2.122-2.121c1.479-1.48 3.447-2.295 5.539-2.295s4.060 0.815 5.539 2.295l-1.769 1.767zM19 18.5c0 0.827-0.673 1.5-1.5 1.5s-1.5-0.673-1.5-1.5v-2c0-0.884 0.527-1.5 1-1.5h1.886c0.057 0.324 0.114 0.834 0.114 1.5v2zM19 14h-1v-1c-0.104-1.257-0.58-2.404-1.322-3.332l0.891-0.889c0.893 1.175 1.431 2.634 1.431 4.221v1z"></path>
</symbol>
<symbol id="i-coffee" viewBox="0 0 24 24">
<path d="M17 19h-12c-0.553 0-1-0.447-1-1s0.447-1 1-1h12c0.553 0 1 0.447 1 1s-0.447 1-1 1z"></path>
<path d="M17.5 5h-12.5v9c0 1.1 0.9 2 2 2h8c1.1 0 2-0.9 2-2v-2h0.5c1.93 0 3.5-1.57 3.5-3.5s-1.57-3.5-3.5-3.5zM15 14h-8v-7h8v7zM17.5 10h-1.5v-3h1.5c0.827 0 1.5 0.673 1.5 1.5s-0.673 1.5-1.5 1.5z"></path>
</symbol>
<symbol id="i-messages" viewBox="0 0 24 24">
<path d="M21 7h-3c0-1.65-1.35-3-3-3h-12c-1.65 0-3 1.35-3 3v7c0 1.65 1.35 3 3 3v3l3-3c0 1.65 1.35 3 3 3h8l3 3v-3h1c1.65 0 3-1.35 3-3v-7c0-1.65-1.35-3-3-3zM3 15c-0.542 0-1-0.458-1-1v-7c0-0.542 0.458-1 1-1h12c0.542 0 1 0.458 1 1v1h-6.5c-1.379 0-2.5 1.121-2.5 2.5v4.5h-4zM22 17c0 0.542-0.458 1-1 1h-12c-0.542 0-1-0.458-1-1v-6.5c0-0.827 0.673-1.5 1.5-1.5h11.5c0.542 0 1 0.458 1 1v7z"></path>
</symbol>
<symbol id="i-full-moon" viewBox="0 0 32 32">
<path d="M16 22c3.314 0 6-2.686 6-6s-2.686-6-6-6c-3.314 0-6 2.686-6 6s2.686 6 6 6v0z"></path>
</symbol>
<symbol id="i-full-moon1" viewBox="0 0 32 32">
<path d="M22 16c0 3.314-2.686 6-6 6s-6-2.686-6-6c0-3.314 2.686-6 6-6s6 2.686 6 6z"></path>
</symbol>
<symbol id="i-crescent" viewBox="0 0 32 32">
<path d="M16 11h0.001c-0 0-0 0-0.001 0-1.657 0-3 2.239-3 5s1.343 5 3 5c-2.761 0-5-2.239-5-5s2.239-5 5-5zM16 22c3.314 0 6-2.686 6-6s-2.686-6-6-6c-3.314 0-6 2.686-6 6s2.686 6 6 6v0z"></path>
</symbol>
<symbol id="i-crescent1" viewBox="0 0 32 32">
<path d="M17 19.874c-0.32 0.082-0.655 0.126-1 0.126-2.209 0-4-1.791-4-4s1.791-4 4-4c0.345 0 0.68 0.044 1 0.126-1.725 0.444-3 2.010-3 3.874s1.275 3.43 3 3.874v0zM16 22c3.314 0 6-2.686 6-6s-2.686-6-6-6c-3.314 0-6 2.686-6 6s2.686 6 6 6v0z"></path>
</symbol>
<symbol id="i-half-moon" viewBox="0 0 32 32">
<path d="M16 22c3.314 0 6-2.686 6-6s-2.686-6-6-6c-3.314 0-6 2.686-6 6s2.686 6 6 6v0zM12 16c0-2.209 1.791-4 4-4v8c-2.209 0-4-1.791-4-4v0z"></path>
</symbol>
<symbol id="i-gibbous-moon" viewBox="0 0 32 32">
<path d="M16 12v0c1.105 0 2 1.791 2 4s-0.895 4-2 4c-2.209 0-4-1.791-4-4s1.791-4 4-4zM16 22c3.314 0 6-2.686 6-6s-2.686-6-6-6c-3.314 0-6 2.686-6 6s2.686 6 6 6v0z"></path>
</symbol>
<symbol id="i-moon" viewBox="0 0 32 32">
<path d="M16 22v0c-3.314 0-6-2.686-6-6s2.686-6 6-6c3.314 0 6 2.686 6 6s-2.686 6-6 6zM16 20c2.209 0 4-1.791 4-4s-1.791-4-4-4c-2.209 0-4 1.791-4 4s1.791 4 4 4v0z"></path>
</symbol>
<symbol id="i-gibbous-moon1" viewBox="0 0 32 32">
<path d="M16 12c2.209 0 4 1.791 4 4s-1.791 4-4 4c-1.105 0-2-1.791-2-4s0.895-4 2-4v0zM16 22c3.314 0 6-2.686 6-6s-2.686-6-6-6c-3.314 0-6 2.686-6 6s2.686 6 6 6v0z"></path>
</symbol>
<symbol id="i-half-moon1" viewBox="0 0 32 32">
<path d="M16 22v0c-3.314 0-6-2.686-6-6s2.686-6 6-6c3.314 0 6 2.686 6 6s-2.686 6-6 6zM20 16c0-2.209-1.791-4-4-4v8c2.209 0 4-1.791 4-4v0z"></path>
</symbol>
<symbol id="i-crescent2" viewBox="0 0 32 32">
<path d="M16 11h-0.001c0 0 0 0 0.001 0 1.657 0 3 2.239 3 5s-1.343 5-3 5c2.761 0 5-2.239 5-5s-2.239-5-5-5zM16 22c-3.314 0-6-2.686-6-6s2.686-6 6-6c3.314 0 6 2.686 6 6s-2.686 6-6 6v0z"></path>
</symbol>
<symbol id="i-crescent3" viewBox="0 0 32 32">
<path d="M15 12.126c0.32-0.082 0.655-0.126 1-0.126 2.209 0 4 1.791 4 4s-1.791 4-4 4c-0.345 0-0.68-0.044-1-0.126 1.725-0.444 3-2.010 3-3.874s-1.275-3.43-3-3.874v0zM16 22c3.314 0 6-2.686 6-6s-2.686-6-6-6c-3.314 0-6 2.686-6 6s2.686 6 6 6v0z"></path>
</symbol>
<symbol id="i-file-app" viewBox="0 0 32 32">
<path d="M8.007 10h16.986c1.671 0 3.007 1.343 3.007 2.999v7.002c0 1.657-1.346 2.999-3.007 2.999h-16.986c-1.671 0-3.007-1.343-3.007-2.999v-7.002c0-1.657 1.346-2.999 3.007-2.999zM7.995 11c-1.102 0-1.995 0.9-1.995 1.992v7.016c0 1.1 0.902 1.992 1.995 1.992h17.011c1.102 0 1.995-0.9 1.995-1.992v-7.016c0-1.1-0.902-1.992-1.995-1.992h-17.011zM12 17h-3v3h-1v-5c0-1.112 0.898-2 2.005-2h0.99c1.111 0 2.005 0.895 2.005 2v5h-1v-3zM9.999 14c-0.552 0-0.999 0.444-0.999 1v1h3v-1c0-0.552-0.443-1-0.999-1h-1.002zM14 15v-2h2.995c1.111 0 2.005 0.895 2.005 2 0 1.112-0.898 2-2.005 2h-1.995v3h-1v-5zM15 14v2h2.001c0.552 0 0.999-0.444 0.999-1 0-0.552-0.443-1-0.999-1h-2.001zM20 15v-2h2.995c1.111 0 2.005 0.895 2.005 2 0 1.112-0.898 2-2.005 2h-1.995v3h-1v-5zM21 14v2h2.001c0.552 0 0.999-0.444 0.999-1 0-0.552-0.443-1-0.999-1h-2.001z"></path>
</symbol>
<symbol id="i-file-png" viewBox="0 0 32 32">
<path d="M8.007 10h16.986c1.671 0 3.007 1.343 3.007 2.999v7.002c0 1.657-1.346 2.999-3.007 2.999h-16.986c-1.671 0-3.007-1.343-3.007-2.999v-7.002c0-1.657 1.346-2.999 3.007-2.999zM7.995 11c-1.102 0-1.995 0.9-1.995 1.992v7.016c0 1.1 0.902 1.992 1.995 1.992h17.011c1.102 0 1.995-0.9 1.995-1.992v-7.016c0-1.1-0.902-1.992-1.995-1.992h-17.011zM8 15v-2h2.995c1.111 0 2.005 0.895 2.005 2 0 1.112-0.898 2-2.005 2h-1.995v3h-1v-5zM9 14v2h2.001c0.552 0 0.999-0.444 0.999-1 0-0.552-0.443-1-0.999-1h-2.001zM15 15v5h-1v-7h1l3 5v-5h1v7h-1l-3-5zM24 17v2h-2c-0.556 0-1-0.448-1-1v-3c0-0.556 0.448-1 1-1h3v-1h-2.995c-1.107 0-2.005 0.887-2.005 2.006v2.988c0 1.108 0.894 2.006 2.005 2.006h2.995v-4h-3v1h2z"></path>
</symbol>
<symbol id="i-file-pdf" viewBox="0 0 32 32">
<path d="M8.007 10h16.986c1.671 0 3.007 1.343 3.007 2.999v7.002c0 1.657-1.346 2.999-3.007 2.999h-16.986c-1.671 0-3.007-1.343-3.007-2.999v-7.002c0-1.657 1.346-2.999 3.007-2.999zM7.995 11c-1.102 0-1.995 0.9-1.995 1.992v7.016c0 1.1 0.902 1.992 1.995 1.992h17.011c1.102 0 1.995-0.9 1.995-1.992v-7.016c0-1.1-0.902-1.992-1.995-1.992h-17.011zM21 16v-2h4v-1h-5v7h1v-3h3v-1h-3zM8 15v-2h2.995c1.111 0 2.005 0.895 2.005 2 0 1.112-0.898 2-2.005 2h-1.995v3h-1v-5zM9 14v2h2.001c0.552 0 0.999-0.444 0.999-1 0-0.552-0.443-1-0.999-1h-2.001zM14 13h2.995c1.111 0 2.005 0.898 2.005 2.006v2.988c0 1.119-0.898 2.006-2.005 2.006h-2.995v-7zM15 14v5h2.001c0.552 0 0.999-0.444 0.999-1v-3c0-0.552-0.443-1-0.999-1h-2.001z"></path>
</symbol>
<symbol id="i-file-mp3" viewBox="0 0 32 32">
<path d="M8.007 10h16.986c1.671 0 3.007 1.343 3.007 2.999v7.002c0 1.657-1.346 2.999-3.007 2.999h-16.986c-1.671 0-3.007-1.343-3.007-2.999v-7.002c0-1.657 1.346-2.999 3.007-2.999zM7.995 11c-1.102 0-1.995 0.9-1.995 1.992v7.016c0 1.1 0.902 1.992 1.995 1.992h17.011c1.102 0 1.995-0.9 1.995-1.992v-7.016c0-1.1-0.902-1.992-1.995-1.992h-17.011zM10.5 16l-1.5-3h-1v7h1v-5l1 2h1l1-2v5h1v-7h-1l-1.5 3zM20 15c0-1.112 0.898-2 2.005-2h0.99c1.111 0 2.005 0.895 2.005 2 0 0.6-0.262 1.135-0.677 1.501 0.415 0.366 0.677 0.902 0.677 1.499 0 1.112-0.898 2-2.005 2h-0.99c-1.111 0-2.005-0.895-2.005-2h1c0 0.552 0.443 1 0.999 1h1.002c0.552 0 0.999-0.444 0.999-1 0-0.552-0.443-1-0.999-1h-1.001v-1h1.001c0.552 0 0.999-0.444 0.999-1 0-0.552-0.443-1-0.999-1h-1.002c-0.552 0-0.999 0.444-0.999 1h-1zM14 15v-2h2.995c1.111 0 2.005 0.895 2.005 2 0 1.112-0.898 2-2.005 2h-1.995v3h-1v-5zM15 14v2h2.001c0.552 0 0.999-0.444 0.999-1 0-0.552-0.443-1-0.999-1h-2.001z"></path>
</symbol>
<symbol id="i-file-html" viewBox="0 0 32 32">
<path d="M4.994 10h23.011c1.654 0 2.994 1.343 2.994 2.999v7.002c0 1.657-1.341 2.999-2.994 2.999h-23.011c-1.654 0-2.994-1.343-2.994-2.999v-7.002c0-1.657 1.341-2.999 2.994-2.999zM5.007 11c-1.109 0-2.007 0.9-2.007 1.992v7.016c0 1.1 0.898 1.992 2.007 1.992h22.985c1.109 0 2.007-0.9 2.007-1.992v-7.016c0-1.1-0.898-1.992-2.007-1.992h-22.985zM28 19v1h-5v-7h1v6h4zM13 14v6h1v-6h2v-1h-5v1h2zM9 16v-3h1v7h-1v-3h-3v3h-1v-7h1v3h3zM19.5 16l-1.5-3h-1v7h1v-5l1 2h1l1-2v5h1v-7h-1l-1.5 3z"></path>
</symbol>
<symbol id="i-file-css" viewBox="0 0 32 32">
<path d="M8.007 10h16.986c1.671 0 3.007 1.343 3.007 2.999v7.002c0 1.657-1.346 2.999-3.007 2.999h-16.986c-1.671 0-3.007-1.343-3.007-2.999v-7.002c0-1.657 1.346-2.999 3.007-2.999zM7.995 11c-1.102 0-1.995 0.9-1.995 1.992v7.016c0 1.1 0.902 1.992 1.995 1.992h17.011c1.102 0 1.995-0.9 1.995-1.992v-7.016c0-1.1-0.902-1.992-1.995-1.992h-17.011zM13 18c-0.003 1.117-0.9 2-2.005 2h-0.99c-1.111 0-2.005-0.898-2.005-2.006v-2.988c0-1.119 0.898-2.006 2.005-2.006h0.99c1.109 0 2.002 0.895 2.005 2h-1c0-0.552-0.443-1-0.999-1h-1.002c-0.552 0-0.999 0.444-0.999 1v3c0 0.552 0.443 1 0.999 1h1.002c0.552 0 0.999-0.444 0.999-1l1-0zM16.005 13c-1.107 0-2.005 0.888-2.005 2 0 1.105 0.888 2 2 2h0.991c0.557 0 1.009 0.444 1.009 1 0 0.552-0.443 1-0.999 1h-1.002c-0.552 0-0.999-0.456-0.999-0.996v-0.011h-1v0.006c0 1.105 0.894 2.001 2.005 2.001h0.99c1.107 0 2.005-0.888 2.005-2 0-1.105-0.888-2-2-2h-0.991c-0.557 0-1.009-0.444-1.009-1 0-0.552 0.443-1 0.999-1h1.002c0.552 0 0.999 0.453 0.999 1h1c0-1.105-0.894-2-2.005-2h-0.99zM22.005 13c-1.107 0-2.005 0.888-2.005 2 0 1.105 0.888 2 2 2h0.991c0.557 0 1.009 0.444 1.009 1 0 0.552-0.443 1-0.999 1h-1.002c-0.552 0-0.999-0.456-0.999-0.996v-0.011h-1v0.006c0 1.105 0.894 2.001 2.005 2.001h0.99c1.107 0 2.005-0.888 2.005-2 0-1.105-0.888-2-2-2h-0.991c-0.557 0-1.009-0.444-1.009-1 0-0.552 0.443-1 0.999-1h1.002c0.552 0 0.999 0.453 0.999 1h1c0-1.105-0.894-2-2.005-2h-0.99z"></path>
</symbol>
<symbol id="i-file-docx" viewBox="0 0 32 32">
<path d="M4.994 10h23.011c1.654 0 2.994 1.343 2.994 2.999v7.002c0 1.657-1.341 2.999-2.994 2.999h-23.011c-1.654 0-2.994-1.343-2.994-2.999v-7.002c0-1.657 1.341-2.999 2.994-2.999zM5.007 11c-1.109 0-2.007 0.9-2.007 1.992v7.016c0 1.1 0.898 1.992 2.007 1.992h22.985c1.109 0 2.007-0.9 2.007-1.992v-7.016c0-1.1-0.898-1.992-2.007-1.992h-22.985zM5 13h2.995c1.111 0 2.005 0.898 2.005 2.006v2.988c0 1.119-0.898 2.006-2.005 2.006h-2.995v-7zM6 14v5h2.001c0.552 0 0.999-0.444 0.999-1v-3c0-0.552-0.443-1-0.999-1h-2.001zM13.005 13h0.99c1.111 0 2.005 0.898 2.005 2.006v2.988c0 1.119-0.898 2.006-2.005 2.006h-0.99c-1.111 0-2.005-0.898-2.005-2.006v-2.988c0-1.119 0.898-2.006 2.005-2.006zM12.999 14c-0.552 0-0.999 0.444-0.999 1v3c0 0.552 0.443 1 0.999 1h1.002c0.552 0 0.999-0.444 0.999-1v-3c0-0.552-0.443-1-0.999-1h-1.002zM22 18c-0.003 1.117-0.9 2-2.005 2h-0.99c-1.111 0-2.005-0.898-2.005-2.006v-2.988c0-1.119 0.898-2.006 2.005-2.006h0.99c1.109 0 2.002 0.895 2.005 2h-1c0-0.552-0.443-1-0.999-1h-1.002c-0.552 0-0.999 0.444-0.999 1v3c0 0.552 0.443 1 0.999 1h1.002c0.552 0 0.999-0.444 0.999-1l1-0zM25 16.5l-2-3.5h1l1.5 2.625 1.5-2.625h1l-2 3.5 2 3.5h-1l-1.5-2.625-1.5 2.625h-1l2-3.5z"></path>
</symbol>
<symbol id="i-file-zip" viewBox="0 0 32 32">
<path d="M8.007 10h16.986c1.671 0 3.007 1.343 3.007 2.999v7.002c0 1.657-1.346 2.999-3.007 2.999h-16.986c-1.671 0-3.007-1.343-3.007-2.999v-7.002c0-1.657 1.346-2.999 3.007-2.999zM7.995 11c-1.102 0-1.995 0.9-1.995 1.992v7.016c0 1.1 0.902 1.992 1.995 1.992h17.011c1.102 0 1.995-0.9 1.995-1.992v-7.016c0-1.1-0.902-1.992-1.995-1.992h-17.011zM10 19l4-5v-1h-5v1h4l-4 5v1h5v-1h-4zM16 14v5h-1v1h3v-1h-1v-5h1v-1h-3v1h1zM19 15v-2h2.995c1.111 0 2.005 0.895 2.005 2 0 1.112-0.898 2-2.005 2h-1.995v3h-1v-5zM20 14v2h2.001c0.552 0 0.999-0.444 0.999-1 0-0.552-0.443-1-0.999-1h-2.001z"></path>
</symbol>
<symbol id="i-file-gif" viewBox="0 0 32 32">
<path d="M8.007 10h16.986c1.671 0 3.007 1.343 3.007 2.999v7.002c0 1.657-1.346 2.999-3.007 2.999h-16.986c-1.671 0-3.007-1.343-3.007-2.999v-7.002c0-1.657 1.346-2.999 3.007-2.999zM7.995 11c-1.102 0-1.995 0.9-1.995 1.992v7.016c0 1.1 0.902 1.992 1.995 1.992h17.011c1.102 0 1.995-0.9 1.995-1.992v-7.016c0-1.1-0.902-1.992-1.995-1.992h-17.011zM13 17v2h-2c-0.556 0-1-0.448-1-1v-3c0-0.556 0.448-1 1-1h3v-1h-2.995c-1.107 0-2.005 0.887-2.005 2.006v2.988c0 1.108 0.894 2.006 2.005 2.006h2.995v-4h-3v1h2zM16 14v5h-1v1h3v-1h-1v-5h1v-1h-3v1h1zM20 16v-2h4v-1h-5v7h1v-3h3v-1h-3z"></path>
</symbol>
<symbol id="i-number" viewBox="0 0 32 32">
<path d="M16 3c-7.18 0-13 5.82-13 13s5.82 13 13 13 13-5.82 13-13-5.82-13-13-13zM16 27c-6.075 0-11-4.925-11-11s4.925-11 11-11 11 4.925 11 11-4.925 11-11 11zM14.828 12.709c-0.589 0.458-1.134 0.77-1.635 0.934v1.742c0.953-0.314 1.781-0.799 2.484-1.455v7.111h2.047v-10h-1.686c-0.218 0.612-0.622 1.209-1.21 1.668z"></path>
</symbol>
<symbol id="i-number1" viewBox="0 0 32 32">
<path d="M16 3c-7.18 0-13 5.82-13 13s5.82 13 13 13 13-5.82 13-13-5.82-13-13-13zM16 27c-6.075 0-11-4.925-11-11s4.925-11 11-11 11 4.925 11 11-4.925 11-11 11zM17.564 17.777c0.607-0.556 1.027-0.982 1.26-1.278 0.351-0.447 0.607-0.875 0.77-1.282 0.161-0.408 0.242-0.838 0.242-1.289 0-0.793-0.283-1.457-0.848-1.99s-1.342-0.8-2.331-0.8c-0.902 0-1.654 0.23-2.256 0.69s-0.96 1.218-1.073 2.275l1.914 0.191c0.036-0.56 0.173-0.96 0.41-1.201s0.555-0.361 0.956-0.361c0.405 0 0.723 0.115 0.952 0.345 0.23 0.23 0.346 0.56 0.346 0.988 0 0.387-0.133 0.779-0.396 1.176-0.195 0.287-0.727 0.834-1.592 1.64-1.076 0.998-1.796 1.799-2.16 2.403s-0.584 1.242-0.656 1.917h6.734v-1.781h-3.819c0.101-0.173 0.231-0.351 0.394-0.534 0.16-0.183 0.545-0.552 1.153-1.109z"></path>
</symbol>
<symbol id="i-number2" viewBox="0 0 32 32">
<path d="M16 3c-7.18 0-13 5.82-13 13s5.82 13 13 13 13-5.82 13-13-5.82-13-13-13zM16 27c-6.075 0-11-4.925-11-11s4.925-11 11-11 11 4.925 11 11-4.925 11-11 11zM17.248 15.219c0.963-0.525 1.443-1.228 1.443-2.108 0-0.621-0.234-1.177-0.705-1.67-0.571-0.602-1.33-0.903-2.275-0.903-0.553 0-1.052 0.104-1.497 0.311s-0.792 0.493-1.042 0.855c-0.248 0.362-0.435 0.847-0.559 1.454l1.773 0.302c0.051-0.439 0.193-0.772 0.426-1.001s0.516-0.343 0.845-0.343c0.334 0 0.603 0.101 0.804 0.301 0.201 0.201 0.302 0.471 0.302 0.809 0 0.398-0.138 0.716-0.413 0.957-0.273 0.24-0.673 0.353-1.195 0.339l-0.213 1.565c0.344-0.096 0.638-0.144 0.885-0.144 0.374 0 0.691 0.141 0.952 0.423s0.391 0.665 0.391 1.147c0 0.509-0.136 0.914-0.407 1.214s-0.607 0.45-1.004 0.45c-0.37 0-0.686-0.125-0.945-0.375-0.261-0.25-0.42-0.612-0.479-1.086l-1.859 0.226c0.096 0.843 0.442 1.525 1.040 2.047s1.35 0.782 2.258 0.782c0.957 0 1.758-0.309 2.401-0.929s0.965-1.368 0.965-2.247c0-0.605-0.172-1.122-0.515-1.55-0.346-0.427-0.804-0.703-1.377-0.826z"></path>
</symbol>
<symbol id="i-number3" viewBox="0 0 32 32">
<path d="M16 3c-7.18 0-13 5.82-13 13s5.82 13 13 13 13-5.82 13-13-5.82-13-13-13zM16 27c-6.075 0-11-4.925-11-11s4.925-11 11-11 11 4.925 11 11-4.925 11-11 11zM18.176 11.337h-1.613l-4.354 6.374v1.674h4.109v2.015h1.858v-2.016h1.243v-1.68h-1.243v-6.367zM16.317 17.705h-2.309l2.309-3.434v3.434z"></path>
</symbol>
<symbol id="i-number4" viewBox="0 0 32 32">
<path d="M16 3c-7.18 0-13 5.82-13 13s5.82 13 13 13 13-5.82 13-13-5.82-13-13-13zM16 27c-6.075 0-11-4.925-11-11s4.925-11 11-11 11 4.925 11 11-4.925 11-11 11zM16.259 13.889c-0.447 0-0.886 0.107-1.313 0.321l0.305-1.704h3.622v-1.797h-5.078l-0.985 5.219 1.557 0.227c0.438-0.49 0.932-0.734 1.484-0.734 0.442 0 0.801 0.154 1.077 0.462s0.414 0.77 0.414 1.386c0 0.657-0.14 1.148-0.417 1.475s-0.618 0.489-1.020 0.489c-0.351 0-0.661-0.126-0.93-0.379-0.27-0.252-0.431-0.595-0.486-1.027l-1.913 0.198c0.114 0.839 0.462 1.506 1.046 2.003 0.584 0.496 1.338 0.744 2.264 0.744 1.158 0 2.062-0.441 2.715-1.327 0.479-0.647 0.717-1.384 0.717-2.21 0-0.989-0.296-1.794-0.889-2.415-0.595-0.621-1.318-0.931-2.17-0.931z"></path>
</symbol>
<symbol id="i-number5" viewBox="0 0 32 32">
<path d="M16 3c-7.18 0-13 5.82-13 13s5.82 13 13 13 13-5.82 13-13-5.82-13-13-13zM16 27c-6.075 0-11-4.925-11-11s4.925-11 11-11 11 4.925 11 11-4.925 11-11 11zM16.52 14.685c-0.711 0-1.305 0.282-1.784 0.848 0.073-1.151 0.249-1.908 0.529-2.271s0.622-0.545 1.028-0.545c0.305 0 0.553 0.091 0.744 0.273s0.31 0.463 0.355 0.845l1.859-0.205c-0.137-0.81-0.455-1.427-0.954-1.853s-1.129-0.638-1.89-0.638c-1.085 0-1.967 0.405-2.646 1.217-0.679 0.811-1.018 2.135-1.018 3.972 0 1.791 0.325 3.080 0.978 3.866 0.651 0.786 1.483 1.18 2.496 1.18 0.944 0 1.717-0.311 2.318-0.931 0.603-0.621 0.903-1.445 0.903-2.472 0-0.968-0.287-1.757-0.858-2.368-0.571-0.613-1.258-0.918-2.060-0.918zM17.201 19.36c-0.236 0.278-0.533 0.417-0.888 0.417-0.368 0-0.696-0.17-0.983-0.51s-0.43-0.823-0.43-1.449c0-0.566 0.127-0.995 0.382-1.285s0.567-0.436 0.936-0.436c0.382 0 0.701 0.152 0.956 0.456s0.383 0.782 0.383 1.436c0 0.636-0.119 1.093-0.356 1.371z"></path>
</symbol>
<symbol id="i-number6" viewBox="0 0 32 32">
<path d="M16 3c-7.18 0-13 5.82-13 13s5.82 13 13 13 13-5.82 13-13-5.82-13-13-13zM16 27c-6.075 0-11-4.925-11-11s4.925-11 11-11 11 4.925 11 11-4.925 11-11 11zM12.744 13.291h4.371c-0.902 1.136-1.623 2.425-2.162 3.867-0.54 1.441-0.826 2.856-0.857 4.243h1.852c-0.005-0.885 0.14-1.889 0.434-3.012 0.293-1.124 0.721-2.185 1.28-3.184 0.56-0.998 1.11-1.764 1.653-2.297v-1.398h-6.57v1.781z"></path>
</symbol>
<symbol id="i-number7" viewBox="0 0 32 32">
<path d="M16 3c-7.18 0-13 5.82-13 13s5.82 13 13 13 13-5.82 13-13-5.82-13-13-13zM16 27c-6.075 0-11-4.925-11-11s4.925-11 11-11 11 4.925 11 11-4.925 11-11 11zM17.206 15.393c0.437-0.191 0.776-0.468 1.018-0.831s0.362-0.776 0.362-1.241c0-0.748-0.264-1.365-0.789-1.853-0.527-0.487-1.267-0.731-2.219-0.731-0.962 0-1.703 0.244-2.225 0.731s-0.783 1.105-0.783 1.853c0 0.438 0.113 0.84 0.338 1.207 0.227 0.367 0.587 0.655 1.084 0.865-0.578 0.247-1.001 0.597-1.27 1.051s-0.402 0.953-0.402 1.496c0 0.986 0.357 1.763 1.072 2.328 0.605 0.479 1.364 0.719 2.275 0.719 0.979 0 1.764-0.29 2.354-0.87 0.59-0.579 0.885-1.332 0.885-2.259 0-0.562-0.145-1.057-0.434-1.486s-0.71-0.755-1.266-0.979zM14.719 12.589c0.219-0.219 0.512-0.328 0.881-0.328 0.355 0 0.641 0.108 0.857 0.325s0.324 0.505 0.324 0.865c0 0.383-0.109 0.683-0.328 0.899s-0.51 0.325-0.874 0.325c-0.36 0-0.647-0.107-0.864-0.321-0.216-0.214-0.324-0.513-0.324-0.896 0-0.36 0.109-0.65 0.328-0.869zM16.618 19.013c-0.261 0.285-0.589 0.428-0.985 0.428-0.405 0-0.744-0.147-1.016-0.444s-0.406-0.711-0.406-1.24c0-0.379 0.115-0.731 0.346-1.056s0.58-0.486 1.049-0.486c0.406 0 0.741 0.143 1.006 0.428 0.264 0.286 0.396 0.664 0.396 1.133 0 0.538-0.13 0.951-0.39 1.237z"></path>
</symbol>
<symbol id="i-number8" viewBox="0 0 32 32">
<path d="M16 3c-7.18 0-13 5.82-13 13s5.82 13 13 13 13-5.82 13-13-5.82-13-13-13zM16 27c-6.075 0-11-4.925-11-11s4.925-11 11-11 11 4.925 11 11-4.925 11-11 11zM15.609 11.337c-0.935 0-1.704 0.311-2.309 0.933s-0.905 1.442-0.905 2.458c0 0.976 0.286 1.768 0.857 2.376s1.253 0.913 2.041 0.913c0.725 0 1.328-0.281 1.812-0.842-0.077 1.149-0.255 1.906-0.532 2.271-0.278 0.364-0.614 0.547-1.011 0.547-0.314 0-0.566-0.092-0.758-0.274s-0.31-0.464-0.355-0.843l-1.858 0.205c0.137 0.833 0.446 1.459 0.929 1.877 0.483 0.419 1.117 0.629 1.9 0.629 1.090 0 1.973-0.406 2.652-1.219 0.679-0.812 1.019-2.135 1.019-3.968 0-1.802-0.326-3.096-0.978-3.883s-1.487-1.18-2.504-1.18zM16.555 16.173c-0.252 0.292-0.562 0.438-0.931 0.438-0.382 0-0.701-0.151-0.956-0.455s-0.382-0.779-0.382-1.426c0-0.638 0.117-1.098 0.351-1.378s0.529-0.42 0.885-0.42c0.373 0 0.701 0.171 0.986 0.513 0.284 0.342 0.427 0.823 0.427 1.443 0 0.565-0.126 0.993-0.38 1.285z"></path>
</symbol>
<symbol id="i-number9" viewBox="0 0 32 32">
<path d="M16 3c-7.18 0-13 5.82-13 13s5.82 13 13 13 13-5.82 13-13-5.82-13-13-13zM16 27c-6.075 0-11-4.925-11-11s4.925-11 11-11 11 4.925 11 11-4.925 11-11 11zM15.994 10.737c-0.973 0-1.729 0.342-2.272 1.026-0.657 0.83-0.985 2.188-0.985 4.074 0 1.923 0.299 3.26 0.896 4.010s1.385 1.124 2.361 1.124c0.971 0 1.729-0.342 2.271-1.025 0.657-0.829 0.986-2.192 0.986-4.088 0-1.9-0.326-3.261-0.979-4.082-0.547-0.692-1.307-1.039-2.278-1.039zM17.045 18.359c-0.102 0.383-0.243 0.648-0.426 0.797-0.184 0.148-0.393 0.222-0.625 0.222-0.234 0-0.441-0.073-0.622-0.219s-0.331-0.438-0.45-0.878-0.178-1.248-0.178-2.423 0.066-2.012 0.199-2.508c0.1-0.383 0.242-0.648 0.426-0.796 0.183-0.148 0.391-0.222 0.625-0.222 0.232 0 0.439 0.074 0.621 0.222s0.33 0.442 0.449 0.882 0.18 1.248 0.18 2.423-0.066 2.008-0.199 2.5z"></path>
</symbol>
<symbol id="i-number10" viewBox="0 0 32 32">
<path d="M16 3c-7.18 0-13 5.82-13 13s5.82 13 13 13 13-5.82 13-13-5.82-13-13-13zM17.757 22.536h-2.469v-9.305c-0.901 0.841-1.964 1.463-3.188 1.867v-2.234c0.644-0.211 1.344-0.612 2.099-1.202s1.273-1.278 1.555-2.064h2.003v12.938z"></path>
</symbol>
<symbol id="i-number11" viewBox="0 0 32 32">
<path d="M16 3c-7.18 0-13 5.82-13 13s5.82 13 13 13 13-5.82 13-13-5.82-13-13-13zM20.342 20.426v2.297h-8.656c0.093-0.867 0.374-1.688 0.843-2.465 0.468-0.776 1.393-1.807 2.774-3.090 1.111-1.037 1.793-1.74 2.045-2.109 0.34-0.51 0.51-1.014 0.51-1.512 0-0.551-0.147-0.975-0.441-1.271s-0.7-0.444-1.219-0.444c-0.512 0-0.92 0.156-1.223 0.467s-0.478 0.827-0.523 1.549l-2.469-0.247c0.146-1.359 0.605-2.335 1.378-2.928s1.739-0.888 2.898-0.888c1.27 0 2.268 0.343 2.994 1.028s1.089 1.538 1.089 2.557c0 0.58-0.104 1.132-0.312 1.656s-0.537 1.074-0.988 1.647c-0.299 0.38-0.839 0.929-1.621 1.644-0.781 0.714-1.276 1.188-1.484 1.422s-0.376 0.463-0.505 0.686h4.91z"></path>
</symbol>
<symbol id="i-number12" viewBox="0 0 32 32">
<path d="M16 3c-7.18 0-13 5.82-13 13s5.82 13 13 13 13-5.82 13-13-5.82-13-13-13zM18.995 21.357c-0.826 0.797-1.854 1.194-3.086 1.194-1.166 0-2.133-0.335-2.9-1.005-0.769-0.67-1.214-1.545-1.337-2.627l2.391-0.289c0.076 0.607 0.281 1.071 0.616 1.393 0.333 0.321 0.738 0.482 1.213 0.482 0.51 0 0.939-0.194 1.289-0.582 0.348-0.387 0.522-0.909 0.522-1.566 0-0.621-0.167-1.115-0.501-1.479-0.335-0.364-0.742-0.545-1.223-0.545-0.317 0-0.695 0.062-1.136 0.184l0.272-1.997c0.668 0.018 1.178-0.127 1.529-0.434s0.526-0.715 0.526-1.224c0-0.433-0.128-0.777-0.385-1.035-0.258-0.257-0.599-0.386-1.025-0.386-0.421 0-0.779 0.146-1.077 0.438s-0.479 0.72-0.544 1.281l-2.281-0.386c0.158-0.782 0.397-1.407 0.717-1.875s0.765-0.835 1.336-1.103 1.212-0.401 1.921-0.401c1.213 0 2.186 0.387 2.918 1.161 0.604 0.633 0.905 1.348 0.905 2.145 0 1.131-0.619 2.034-1.858 2.708 0.739 0.158 1.33 0.513 1.772 1.063 0.443 0.551 0.664 1.215 0.664 1.994 0.001 1.132-0.412 2.095-1.238 2.891z"></path>
</symbol>
<symbol id="i-number13" viewBox="0 0 32 32">
<path d="M16.359 17.583v-4.405l-2.971 4.405h2.971zM16 3c-7.18 0-13 5.82-13 13s5.82 13 13 13 13-5.82 13-13-5.82-13-13-13zM20.344 19.739h-1.594v2.595h-2.391v-2.595h-5.281v-2.147l5.598-8.196h2.074v8.187h1.594v2.156z"></path>
</symbol>
<symbol id="i-number14" viewBox="0 0 32 32">
<path d="M16 3c-7.18 0-13 5.82-13 13s5.82 13 13 13 13-5.82 13-13-5.82-13-13-13zM19.546 20.68c-0.839 1.137-2.003 1.705-3.492 1.705-1.19 0-2.16-0.319-2.911-0.959-0.75-0.641-1.199-1.502-1.346-2.582l2.469-0.256c0.070 0.559 0.278 1 0.623 1.324 0.345 0.326 0.742 0.488 1.192 0.488 0.515 0 0.949-0.209 1.307-0.627 0.355-0.418 0.534-1.049 0.534-1.893 0-0.79-0.178-1.383-0.532-1.778-0.355-0.395-0.818-0.593-1.388-0.593-0.71 0-1.348 0.312-1.911 0.938l-1.997-0.289 1.266-6.711h6.531v2.312h-4.658l-0.397 2.192c0.553-0.273 1.117-0.411 1.693-0.411 1.099 0 2.030 0.399 2.795 1.196s1.146 1.832 1.146 3.103c-0.001 1.062-0.309 2.009-0.924 2.841z"></path>
</symbol>
<symbol id="i-number15" viewBox="0 0 32 32">
<path d="M16.062 16.037c-0.476 0-0.877 0.186-1.205 0.558-0.329 0.372-0.493 0.921-0.493 1.647 0 0.803 0.185 1.422 0.555 1.858 0.369 0.437 0.791 0.655 1.267 0.655 0.457 0 0.839-0.18 1.144-0.537s0.457-0.942 0.457-1.757c0-0.838-0.164-1.451-0.492-1.841s-0.74-0.583-1.233-0.583zM16 3c-7.18 0-13 5.82-13 13s5.82 13 13 13 13-5.82 13-13-5.82-13-13-13zM19.047 21.607c-0.773 0.797-1.768 1.194-2.98 1.194-1.302 0-2.372-0.505-3.21-1.516s-1.258-2.667-1.258-4.97c0-2.361 0.438-4.063 1.312-5.106s2.008-1.564 3.404-1.564c0.979 0 1.79 0.275 2.432 0.825 0.643 0.551 1.052 1.349 1.228 2.396l-2.391 0.263c-0.059-0.49-0.212-0.853-0.458-1.086-0.247-0.234-0.567-0.351-0.961-0.351-0.523 0-0.966 0.233-1.327 0.701s-0.589 1.44-0.683 2.92c0.615-0.726 1.381-1.089 2.297-1.089 1.032 0 1.916 0.392 2.652 1.176s1.104 1.797 1.104 3.038c0 1.318-0.387 2.374-1.161 3.169z"></path>
</symbol>
<symbol id="i-number16" viewBox="0 0 32 32">
<path d="M16 3c-7.18 0-13 5.82-13 13s5.82 13 13 13 13-5.82 13-13-5.82-13-13-13zM20.386 11.828c-0.697 0.687-1.405 1.671-2.125 2.955s-1.269 2.648-1.646 4.094c-0.377 1.445-0.562 2.736-0.557 3.873h-2.375c0.040-1.781 0.407-3.6 1.101-5.452 0.692-1.853 1.617-3.51 2.775-4.97h-5.626v-2.297h8.453v1.797z"></path>
</symbol>
<symbol id="i-number17" viewBox="0 0 32 32">
<path d="M16.214 16.662c-0.604 0-1.053 0.209-1.349 0.629-0.296 0.419-0.443 0.873-0.443 1.363 0 0.686 0.174 1.22 0.522 1.604s0.783 0.576 1.305 0.576c0.51 0 0.932-0.186 1.266-0.555s0.501-0.901 0.501-1.599c0-0.608-0.17-1.097-0.51-1.466-0.34-0.368-0.771-0.552-1.292-0.552zM16.179 14.708c0.467 0 0.84-0.14 1.12-0.418 0.279-0.279 0.42-0.665 0.42-1.158 0-0.464-0.139-0.835-0.416-1.114s-0.643-0.418-1.098-0.418c-0.473 0-0.849 0.141-1.129 0.422s-0.42 0.655-0.42 1.119c0 0.493 0.139 0.878 0.415 1.154 0.278 0.275 0.647 0.413 1.108 0.413zM16 3c-7.18 0-13 5.82-13 13s5.82 13 13 13 13-5.82 13-13-5.82-13-13-13zM19.315 21.699c-0.759 0.746-1.768 1.119-3.026 1.119-1.172 0-2.146-0.309-2.926-0.926-0.919-0.729-1.379-1.727-1.379-2.996 0-0.698 0.173-1.34 0.52-1.924s0.892-1.035 1.637-1.353c-0.639-0.269-1.104-0.639-1.393-1.11-0.291-0.471-0.436-0.986-0.436-1.548 0-0.959 0.335-1.751 1.006-2.377s1.625-0.938 2.861-0.938c1.225 0 2.176 0.313 2.852 0.938 0.678 0.626 1.016 1.418 1.016 2.377 0 0.597-0.155 1.127-0.466 1.592-0.312 0.464-0.748 0.82-1.311 1.065 0.713 0.288 1.255 0.708 1.626 1.26s0.557 1.189 0.557 1.911c0 1.195-0.38 2.164-1.138 2.91z"></path>
</symbol>
<symbol id="i-number18" viewBox="0 0 32 32">
<path d="M15.93 11.443c-0.459 0-0.84 0.18-1.143 0.539s-0.454 0.949-0.454 1.768c0 0.83 0.165 1.439 0.494 1.828 0.329 0.39 0.741 0.584 1.234 0.584 0.477 0 0.878-0.188 1.204-0.562s0.489-0.924 0.489-1.649c0-0.795-0.184-1.412-0.551-1.851s-0.792-0.657-1.273-0.657zM16 3c-7.18 0-13 5.82-13 13s5.82 13 13 13 13-5.82 13-13-5.82-13-13-13zM19.213 21.003c-0.871 1.044-2.006 1.565-3.403 1.565-1.007 0-1.819-0.27-2.439-0.807-0.62-0.539-1.018-1.343-1.193-2.413l2.391-0.265c0.059 0.488 0.211 0.85 0.456 1.085s0.568 0.353 0.972 0.353c0.508 0 0.94-0.234 1.297-0.705 0.355-0.471 0.583-1.444 0.683-2.923-0.622 0.721-1.399 1.081-2.332 1.081-1.015 0-1.891-0.391-2.627-1.172-0.736-0.782-1.104-1.799-1.104-3.052 0-1.305 0.389-2.357 1.165-3.156s1.767-1.198 2.969-1.198c1.307 0 2.38 0.506 3.219 1.517 0.838 1.011 1.257 2.675 1.257 4.99-0.003 2.357-0.439 4.056-1.311 5.1z"></path>
</symbol>
<symbol id="i-number19" viewBox="0 0 32 32">
<path d="M16.738 11.478c-0.233-0.19-0.5-0.286-0.801-0.286s-0.569 0.096-0.805 0.286c-0.236 0.191-0.419 0.532-0.549 1.024-0.171 0.639-0.256 1.714-0.256 3.226s0.076 2.551 0.229 3.116 0.347 0.941 0.579 1.13c0.233 0.188 0.5 0.28 0.801 0.28s0.568-0.095 0.805-0.285 0.418-0.532 0.549-1.024c0.17-0.633 0.256-1.705 0.256-3.217s-0.076-2.551-0.23-3.116c-0.153-0.565-0.345-0.943-0.578-1.134zM16 3c-7.18 0-13 5.82-13 13s5.82 13 13 13 13-5.82 13-13-5.82-13-13-13zM18.858 20.983c-0.698 0.879-1.672 1.318-2.921 1.318-1.255 0-2.267-0.481-3.035-1.445s-1.152-2.682-1.152-5.154c0-2.426 0.422-4.172 1.267-5.238 0.698-0.879 1.672-1.318 2.921-1.318s2.226 0.445 2.93 1.336c0.838 1.055 1.258 2.803 1.258 5.247-0.001 2.437-0.424 4.189-1.268 5.254z"></path>
</symbol>
<symbol id="i-coffee1" viewBox="0 0 32 32">
<path d="M29.984 15.548c-0.378-3.639-4.063-3.618-5.977-3.553 0.009-0.553 0.015-0.999 0.015-0.999l-22.027-0.007c0 0 0 3.014 0 3.089 0 4.281 2.445 7.984 6.011 9.809v1.068h10.019v-1.068c1-0.512 1.897-1.184 2.691-1.961 4.915-1.176 10.070-2.873 9.268-6.378zM22.25 20.066c1.123-1.725 1.786-3.775 1.786-5.988 0 0.017 0.001-0.029 0.002-0.116 1.785-0.059 3.755-0.237 4.201 1.54 0.448 1.955-2.817 3.547-5.989 4.564zM8.83 6.99c0 1-1.64 2.065-1.64 2.065s3.214-0.574 3.214-2.074-3.187-0.5-3.187-1.625 1.577-2.19 1.577-2.19-3.025 0.637-3.025 2.199 3.061 0.625 3.061 1.625zM13.83 7.99c0 1-1.64 2.065-1.64 2.065s3.214-0.574 3.214-2.074-3.187-0.5-3.187-1.625 1.577-2.19 1.577-2.19-3.026 0.637-3.026 2.199 3.062 0.625 3.062 1.625zM17.83 6.99c0 1-1.64 2.065-1.64 2.065s3.214-0.574 3.214-2.074-3.187-0.5-3.187-1.625 1.577-2.19 1.577-2.19-3.026 0.637-3.026 2.199 3.062 0.625 3.062 1.625zM1.933 25.928c0 1.381 4.925 2.5 11 2.5s11-1.119 11-2.5c0 0.029-22 0.029-22 0z"></path>
</symbol>
<symbol id="i-cassette" viewBox="0 0 32 32">
<path d="M28.017 28.016h-2.065l-2.002-6.008h-16.961l-2.003 6.008h-2.003c-1.658 0-3.004-1.346-3.004-3.004v-18.024c0-1.659 1.346-3.003 3.004-3.003h25.033c1.659 0 3.004 1.345 3.004 3.003v18.024c0.001 1.658-1.344 3.004-3.003 3.004zM27.954 6.988h-24.971v13.017h24.971v-13.017zM26.014 18.002h-21.028v-9.011h21.027v9.011zM9.488 10.977c-1.383 0-2.503 1.121-2.503 2.503s1.12 2.503 2.503 2.503 2.504-1.121 2.504-2.503-1.121-2.503-2.504-2.503zM16.939 12.496h-2.941v2.002h2.941v-2.002zM21.513 10.977c-1.383 0-2.503 1.121-2.503 2.503s1.12 2.503 2.503 2.503c1.382 0 2.503-1.121 2.503-2.503s-1.121-2.503-2.503-2.503zM21.445 14.498c-0.553 0-1.001-0.448-1.001-1.001s0.448-1.001 1.001-1.001 1.002 0.448 1.002 1.001c0 0.553-0.449 1.001-1.002 1.001zM9.555 14.498c-0.553 0-1.001-0.448-1.001-1.001s0.448-1.001 1.001-1.001c0.554 0 1.002 0.448 1.002 1.001s-0.449 1.001-1.002 1.001zM23.26 23.009l1.753 4.965h-19.088l1.689-4.965h15.646zM22.009 26.013h1.001v-1.001h-1.001v1.001zM20.006 26.013h1.002v-1.001h-1.002v1.001zM12.997 26.013h4.944v-1.001h-4.944v1.001zM9.993 26.013h1.001v-1.001h-1.001v1.001zM7.99 26.013h1.001v-1.001h-1.001v1.001z"></path>
</symbol>
<symbol id="i-gamepad" viewBox="0 0 33 32">
<path d="M23.014 4.459c-1.416 0-4.166 2-6.5 2s-5.25-2-6.5-2c-8.583 0-13.5 23.082-7.083 23.082 5.417 0 6.146-6.75 13.562-6.75 6 0 9.521 6.668 13.521 6.668 6.416 0 1.584-23-7-23zM9.513 17.459c-2.485 0-4.5-2.016-4.5-4.5s2.015-4.5 4.5-4.5 4.5 2.015 4.5 4.5c0 2.484-2.014 4.5-4.5 4.5zM21.451 14.959c-0.553 0-1-0.447-1-1s0.447-1 1-1 1 0.447 1 1-0.447 1-1 1zM24.514 17.959c-0.553 0-1-0.447-1-1s0.447-1 1-1 1 0.447 1 1-0.448 1-1 1zM24.514 11.959c-0.553 0-1-0.447-1-1s0.447-1 1-1 1 0.447 1 1-0.448 1-1 1zM27.514 14.959c-0.553 0-1-0.447-1-1s0.447-1 1-1 1 0.447 1 1-0.448 1-1 1zM9.513 10.459c-1.38 0-2.5 1.119-2.5 2.5s1.12 2.5 2.5 2.5c1.381 0 2.5-1.119 2.5-2.5s-1.119-2.5-2.5-2.5z"></path>
</symbol>
<symbol id="i-skeletor" viewBox="0 0 32 32">
<path d="M19.971 14.602c0.578-0.088 1.666-0.472 2.049-0.771 0.418-0.244 0.635-0.534 0.648-0.872 0.041-0.515 0.018-1.015-0.070-1.501-0.088-0.487-0.187-1.041-0.295-1.663-1.176 1.853-2.771 3.103-4.786 3.752l-0.224 0.486c0.947 0.609 1.84 0.798 2.678 0.569v0zM13.42 13.547c-2.028-0.649-3.631-1.899-4.807-3.752-0.095 0.622-0.189 1.176-0.284 1.663s-0.115 0.986-0.061 1.501c0.027 0.352 0.243 0.642 0.649 0.872 0.306 0.252 1.511 0.723 2.028 0.771 0.838 0.229 1.73 0.040 2.678-0.568l-0.203-0.487zM14.018 17.015c-0.155 0.406-0.125 1.037 0.092 1.578h0.941v-2.978c-0.393 0.528-0.878 0.994-1.033 1.4zM16.053 18.593h0.908c0.054-0.148 0.095-0.438 0.122-0.554s0.041-0.24 0.041-0.375c0-0.365-0.079-0.696-0.235-0.994s-0.564-0.648-0.836-1.055v2.978zM26.568 8.654c0.203 0.798 0.271 1.609 0.203 2.434-0.135 1.65-0.838 3.306-2.109 4.604l1.116 2.13-1.644 1.866c-2.326-1.11-3.063 0.044-3.063 1.663v6.649h-1.047v-5.964h-0.946v5.964h-1.088v-5.964h-0.938v5.964h-1.034v-5.964h-0.938v5.964h-1.033v-5.946l-0.939-0.018v5.964h-1.090v-5.964h-0.943v5.964h-1.035v-6.649c0-1.625-0.867-2.855-3.198-1.663l-1.683-1.866 1.176-2.13c-1.271-1.298-1.951-2.951-2.1-4.613-0.075-0.833-0.014-1.647 0.182-2.445 0.997-4.056 4.496-4.698 5.182-4.807 3.905-0.541 7.818-0.541 11.737 0 0.669 0.115 4.213 0.819 5.232 4.827z"></path>
</symbol>
<symbol id="i-pig" viewBox="0 0 32 32">
<path d="M24.674 21.909c0 0 3.33-2.278 3.33-6.771 0-6.688-7.088-9.161-10.899-9.095-3.812 0.067-4.948 1.070-4.948 1.070s-1.297-0.943-2.672-1.733c-1.052-0.41-1.296-0.469-2.027-0.234-0.585 0-0.217 0.974 0.018 1.325 0.233 0.351 1.366 2.29 1.366 2.29s-2.378 2.449-2.554 4.059c0-0.029-1.12-0.009-1.734-0.009s-0.556 0.669-0.556 0.669l0.017 4.714c0 0-0.038 0.669 0.519 0.669 0.556 0 1.738 0.013 1.738 0.013s1.663 2.415 2.717 2.854c0 0.029-0.911 2.503-0.911 2.503s-0.439 0.761 0.351 1.054c0.79 0.292 2.851 1.157 3.729 1.421s1.003-0.334 1.003-0.334l0.869-1.877 5.685 0.009 0.869 1.935c0 0 0.167 0.898 1.337 0.401 1.171-0.497 2.449-1.087 3.415-1.584 0.965-0.497 0.33-1.426 0.33-1.426l-0.992-1.923zM9.322 13.764c-0.533 0-0.965-0.433-0.965-0.966s0.432-0.965 0.965-0.965 0.966 0.432 0.966 0.965-0.433 0.966-0.966 0.966zM22.925 10.756c-0.308 0.365-0.509 0.096-0.757 0.023 0 0-1.051-0.975-2.595-1.43-1.599-0.47-3.282-0.243-3.282-0.243-0.248-0.073-0.549-0.081-0.551-0.464 0.013-0.473 0.587-0.477 0.58-0.493 0 0 1.894-0.175 3.479 0.291 1.559 0.458 2.75 1.454 2.75 1.454s0.637 0.439 0.376 0.862z"></path>
</symbol>
<symbol id="i-bike" viewBox="0 0 38 32">
<path d="M29.998 28.197c-4.212 0-7.627-3.414-7.627-7.627 0-3.090 1.842-5.745 4.484-6.943l-1.014-2.283 0.165 0.399-6.944 9.321v1.869h1.017v1.018h-3.052v-1.018h1.018v-1.018l-2.877-0.27c-0.524 3.701-3.696 6.551-7.542 6.551-4.212 0.001-7.626-3.413-7.626-7.626 0-4.212 3.414-7.626 7.627-7.626 1.101 0 2.145 0.238 3.090 0.657l1.906-4.788-0.865-2.416c-0.38 0-0.734 0-1.017 0-0.954 0-0.699-1.017-0.699-1.017s0.063-0.89 0.763-0.89 0.699 0.636 1.843 0.636c1.095 0 2.669 0.317 2.669 0.317s0.699 0.953-0.635 0.953c-0.604 0-1.269 0-1.907 0l0.723 2.597h11.052l-0.868-1.973h-0.675v-1.016h4.067v1.017h-2.298l2.977 6.26c0.71-0.219 1.465-0.337 2.246-0.337 4.212 0 7.627 3.414 7.627 7.626-0.001 4.213-3.416 7.627-7.628 7.627zM7.627 13.96c-3.651 0-6.61 2.959-6.61 6.61s2.959 6.609 6.61 6.609c3.319 0 6.060-2.449 6.53-5.639l-5.294-0.545c-0.084 0.477-0.481 0.846-0.982 0.846-0.562 0-1.017-0.455-1.017-1.018 0-0.561 0.455-1.018 1.017-1.018 0.12 0 0.232 0.031 0.339 0.070l2.121-5.33c-0.829-0.372-1.746-0.585-2.714-0.585zM9.152 20.125l5.079 0.537c0.001-0.031 0.005-0.061 0.005-0.092 0-2.35-1.229-4.408-3.077-5.581l-2.007 5.136zM13.077 10.082l-1.543 3.948c2.225 1.332 3.719 3.759 3.719 6.541 0 0.066-0.008 0.133-0.010 0.199l1.726 0.182-3.892-10.87zM24.978 9.396v0.614h-11.12l4.050 10.839 7.687-10.065-0.617-1.388zM29.998 13.96c-0.637 0-1.251 0.095-1.834 0.264l2.374 5.424c0.482 0.078 0.858 0.48 0.858 0.984 0 0.562-0.455 1.018-1.017 1.018s-1.018-0.455-1.018-1.018c0-0.273 0.111-0.521 0.289-0.705l-2.384-5.372c-2.287 1.040-3.879 3.338-3.879 6.014 0 3.65 2.959 6.609 6.609 6.609s6.609-2.959 6.609-6.609-2.957-6.609-6.607-6.609z"></path>
</symbol>
<symbol id="i-laptop" viewBox="0 0 42 32">
<path d="M3.5 26c0.276 0 0.5-0.224 0.5-0.5v-23.5c0-0.598 0.402-1 1-1h32c0.57 0 1 0.468 1 1.089v23.411c0 0.276 0.224 0.5 0.5 0.5s0.5-0.224 0.5-0.5v-23.411c0-1.172-0.878-2.089-2-2.089h-32c-1.159 0-2 0.841-2 2v23.5c0 0.276 0.224 0.5 0.5 0.5zM6.5 3c-0.276 0-0.5 0.224-0.5 0.5v22c0 0.276 0.224 0.5 0.5 0.5h29c0.276 0 0.5-0.224 0.5-0.5v-22c0-0.276-0.224-0.5-0.5-0.5h-29zM35 25h-28v-21h28v21zM41.5 28h-41c-0.276 0-0.5 0.224-0.5 0.5v1.175c0 1.198 1.408 2.325 2.5 2.325h37c1.145 0 2.5-1.355 2.5-2.5v-1c0-0.276-0.224-0.5-0.5-0.5zM41 29.5c0 0.589-0.911 1.5-1.5 1.5h-37c-0.631 0-1.5-0.768-1.5-1.325v-0.675h40v0.5z"></path>
</symbol>
<symbol id="i-desktop" viewBox="0 0 39 32">
<path d="M1.5 25h17.5v1.5c0 0.276 0.224 0.5 0.5 0.5s0.5-0.224 0.5-0.5v-1.5h17.5c0.827 0 1.5-0.673 1.5-1.5v-22c0-0.827-0.673-1.5-1.5-1.5h-36c-0.827 0-1.5 0.673-1.5 1.5v22c0 0.827 0.673 1.5 1.5 1.5zM1 1.5c0-0.276 0.224-0.5 0.5-0.5h36c0.276 0 0.5 0.224 0.5 0.5v22c0 0.276-0.224 0.5-0.5 0.5h-36c-0.276 0-0.5-0.224-0.5-0.5v-22zM3.5 22h32c0.276 0 0.5-0.224 0.5-0.5v-18c0-0.276-0.224-0.5-0.5-0.5h-32c-0.276 0-0.5 0.224-0.5 0.5v18c0 0.276 0.224 0.5 0.5 0.5zM4 4h31v17h-31v-17zM14 28c-1.14 0-2 0.86-2 2v1.5c0 0.276 0.224 0.5 0.5 0.5h14c0.276 0 0.5-0.224 0.5-0.5v-1.425c0-1.163-0.878-2.075-2-2.075h-11zM26 30.075v0.925h-13v-1c0-0.589 0.411-1 1-1h11c0.57 0 1 0.462 1 1.075z"></path>
</symbol>
<symbol id="i-tablet" viewBox="0 0 25 32">
<path d="M1.5 32h22c0.827 0 1.5-0.673 1.5-1.5v-29c0-0.827-0.673-1.5-1.5-1.5h-22c-0.827 0-1.5 0.673-1.5 1.5v29c0 0.827 0.673 1.5 1.5 1.5zM1 1.5c0-0.276 0.224-0.5 0.5-0.5h22c0.276 0 0.5 0.224 0.5 0.5v29c0 0.276-0.224 0.5-0.5 0.5h-22c-0.276 0-0.5-0.224-0.5-0.5v-29zM3.5 27h18c0.276 0 0.5-0.224 0.5-0.5v-23c0-0.276-0.224-0.5-0.5-0.5h-18c-0.276 0-0.5 0.224-0.5 0.5v23c0 0.276 0.224 0.5 0.5 0.5zM4 4h17v22h-17v-22zM12 29c0 0.552 0.448 1 1 1s1-0.448 1-1c0-0.552-0.448-1-1-1s-1 0.448-1 1z"></path>
</symbol>
<symbol id="i-phone" viewBox="0 0 19 32">
<path d="M1.5 32h16c0.827 0 1.5-0.673 1.5-1.5v-29c0-0.827-0.673-1.5-1.5-1.5h-16c-0.827 0-1.5 0.673-1.5 1.5v29c0 0.827 0.673 1.5 1.5 1.5zM1 1.5c0-0.276 0.224-0.5 0.5-0.5h16c0.276 0 0.5 0.224 0.5 0.5v29c0 0.276-0.224 0.5-0.5 0.5h-16c-0.276 0-0.5-0.224-0.5-0.5v-29zM2.5 27h14c0.276 0 0.5-0.224 0.5-0.5v-21c0-0.276-0.224-0.5-0.5-0.5h-14c-0.276 0-0.5 0.224-0.5 0.5v21c0 0.276 0.224 0.5 0.5 0.5zM3 6h13v20h-13v-20zM9 29c0 0.552 0.448 1 1 1s1-0.448 1-1c0-0.552-0.448-1-1-1s-1 0.448-1 1zM7.5 4h4c0.276 0 0.5-0.224 0.5-0.5s-0.224-0.5-0.5-0.5h-4c-0.276 0-0.5 0.224-0.5 0.5s0.224 0.5 0.5 0.5z"></path>
</symbol>
<symbol id="i-edit" viewBox="0 0 32 32">
<path d="M1.5 32h29c0.827 0 1.5-0.673 1.5-1.5v-29c0-0.827-0.673-1.5-1.5-1.5h-29c-0.827 0-1.5 0.673-1.5 1.5v29c0 0.827 0.673 1.5 1.5 1.5zM1 1.5c0-0.276 0.225-0.5 0.5-0.5h29c0.275 0 0.5 0.224 0.5 0.5v29c0 0.276-0.225 0.5-0.5 0.5h-29c-0.275 0-0.5-0.224-0.5-0.5v-29zM4 28.479c0.048 0 0.096-0.007 0.143-0.021l10-2.979c0.081-0.024 0.154-0.068 0.213-0.127l10.090-10.205c0.023-0.024 0.035-0.053 0.052-0.080l3.658-3.658c0.607-0.607 0.607-1.595 0-2.203l-5.236-5.234c-0.607-0.607-1.595-0.608-2.202 0l-3.739 3.739c-0.024 0.024-0.036 0.054-0.054 0.081l-10.118 10.119c-0.056 0.056-0.098 0.124-0.122 0.199l-3.16 9.715c-0.058 0.177-0.012 0.371 0.117 0.504 0.095 0.097 0.225 0.15 0.358 0.15zM17.359 8.771l1.040 1.040-8.523 8.563-1.727-0.392 9.21-9.211zM10.5 19.165l8.607-8.646 2.434 2.434-8.745 8.547h-2.296v-2.335zM23.385 14.797l-9.246 9.352-0.576-1.999 8.684-8.489 1.138 1.136zM7.493 18.859l2.007 0.456v2.685c0 0.276 0.224 0.5 0.5 0.5h2.624l0.633 2.2-8.487 2.528 2.723-8.369zM21.425 4.679c0.218-0.217 0.572-0.216 0.788 0l5.235 5.235c0.218 0.217 0.218 0.571 0 0.789l-3.372 3.372-6.023-6.023 3.372-3.373z"></path>
</symbol>
<symbol id="i-hourglass" viewBox="0 0 21 32">
<path d="M21.021 0.5c0-0.276-0.224-0.5-0.5-0.5h-20.042c-0.276 0-0.5 0.224-0.5 0.5s0.223 0.5 0.5 0.5h20.043c0.276 0 0.499-0.224 0.499-0.5zM20 6.112v-3.612c0-0.276-0.224-0.5-0.5-0.5h-17.918c-0.276 0-0.5 0.224-0.5 0.5v3.612c0 4.976 3.808 8.35 6.014 9.886-2.529 1.742-6.096 5.057-6.096 9.89v3.612c0 0.276 0.224 0.5 0.5 0.5h18c0.276 0 0.5-0.224 0.5-0.5v-3.583c0-4.962-3.863-8.365-6.095-9.916 2.529-1.742 6.095-5.056 6.095-9.889zM10.5 24.19l4.81 4.81h-9.62l4.81-4.81zM12.732 15.578c-0.145 0.091-0.232 0.251-0.232 0.422s0.087 0.331 0.232 0.422c1.885 1.195 6.268 4.513 6.268 9.495v3.083h-2.288c-0.009-0.011-0.013-0.025-0.023-0.035l-5.689-5.689v-0.776c0-0.276-0.224-0.5-0.5-0.5s-0.5 0.224-0.5 0.5v0.776l-5.689 5.689c-0.010 0.010-0.014 0.024-0.023 0.035h-2.288v-3.112c0-4.777 3.927-7.981 6.268-9.465 0.145-0.092 0.232-0.252 0.232-0.423s-0.087-0.331-0.232-0.422c-1.86-1.18-6.268-4.463-6.268-9.466v-3.112h17v3.112c0 4.778-3.927 7.981-6.268 9.466zM15.541 8.972h-9.814c-0.179 0-0.345 0.096-0.434 0.251-0.089 0.156-0.088 0.347 0.002 0.502 1.187 2.021 2.92 3.258 4.755 4.569l0.159 0.113c0.087 0.062 0.188 0.093 0.291 0.093s0.204-0.031 0.291-0.093c0.262-0.187 0.526-0.371 0.79-0.555 1.639-1.144 3.334-2.326 4.391-4.127 0.091-0.154 0.092-0.346 0.003-0.501-0.090-0.156-0.255-0.252-0.434-0.252zM11.008 13.031c-0.169 0.118-0.338 0.236-0.507 0.355-1.505-1.075-2.835-2.042-3.846-3.415h7.943c-0.941 1.212-2.234 2.114-3.59 3.060zM0.479 32h20.043c0.276 0 0.5-0.224 0.5-0.5s-0.224-0.5-0.5-0.5h-20.043c-0.276 0-0.5 0.224-0.5 0.5s0.223 0.5 0.5 0.5zM10.5 19c-0.276 0-0.5 0.224-0.5 0.5v1c0 0.276 0.224 0.5 0.5 0.5s0.5-0.224 0.5-0.5v-1c0-0.276-0.224-0.5-0.5-0.5zM10.5 16c-0.276 0-0.5 0.224-0.5 0.5v1c0 0.276 0.224 0.5 0.5 0.5s0.5-0.224 0.5-0.5v-1c0-0.276-0.224-0.5-0.5-0.5z"></path>
</symbol>
<symbol id="i-map" viewBox="0 0 41 32">
<path d="M9.239 31.927c0.009 0.006 0.021 0.003 0.030 0.009 0.073 0.037 0.149 0.064 0.231 0.064 0.044 0 0.088-0.006 0.132-0.018l10.868-2.966 10.868 2.966c0.044 0.012 0.088 0.018 0.132 0.018 0.082 0 0.158-0.027 0.23-0.065 0.010-0.005 0.021-0.003 0.030-0.009l9-5.5c0.191-0.117 0.281-0.348 0.22-0.563l-4.984-17.5c-0.041-0.147-0.148-0.267-0.29-0.326-0.142-0.057-0.301-0.048-0.436 0.026l-4.962 2.784c-0.24 0.135-0.326 0.44-0.191 0.681s0.439 0.327 0.682 0.191l4.409-2.475 4.707 16.526-8.015 4.899-1.904-15.231c-0.034-0.275-0.293-0.466-0.559-0.434-0.273 0.034-0.468 0.284-0.434 0.558l1.907 15.259-9.91-2.705v-2.73c0-0.276-0.224-0.5-0.5-0.5s-0.5 0.224-0.5 0.5v2.73l-9.911 2.705 1.907-15.259c0.034-0.274-0.16-0.524-0.434-0.558-0.272-0.032-0.524 0.159-0.559 0.434l-1.903 15.231-8.015-4.898 4.707-16.525 4.409 2.475c0.242 0.134 0.546 0.049 0.682-0.191 0.135-0.241 0.049-0.545-0.191-0.681l-4.963-2.785c-0.133-0.075-0.292-0.085-0.435-0.026s-0.249 0.178-0.29 0.326l-4.984 17.5c-0.062 0.216 0.028 0.446 0.22 0.563l8.999 5.5zM20.161 23.368c0.096 0.088 0.217 0.132 0.339 0.132 0.12 0 0.24-0.043 0.336-0.129 0.333-0.303 8.164-7.489 8.164-14.871 0-4.767-3.733-8.5-8.5-8.5s-8.5 3.733-8.5 8.5c0 7.254 7.828 14.56 8.161 14.868zM20.5 1c4.275 0 7.5 3.224 7.5 7.5 0 6.097-5.993 12.337-7.497 13.807-1.501-1.487-7.503-7.809-7.503-13.807 0-4.276 3.225-7.5 7.5-7.5zM25 8.5c0-2.481-2.019-4.5-4.5-4.5s-4.5 2.019-4.5 4.5 2.019 4.5 4.5 4.5 4.5-2.019 4.5-4.5zM20.5 12c-1.93 0-3.5-1.57-3.5-3.5s1.57-3.5 3.5-3.5 3.5 1.57 3.5 3.5-1.57 3.5-3.5 3.5z"></path>
</symbol>
<symbol id="i-puzzle" viewBox="0 0 35 32">
<path d="M20.042 3.907c0-1.945-1.559-3.907-5.042-3.907-3.067 0-5.129 1.57-5.129 3.907 0 1.364 0.552 1.986 0.917 2.398 0.193 0.217 0.271 0.315 0.271 0.413 0 0.162 0 0.26-0.558 0.282h-6.098c-2.345 0-4.403 1.869-4.403 4v3.732c0.038 0.944 0.571 1.531 1.392 1.531 0.467 0 0.813-0.267 1.149-0.526 0.45-0.345 0.959-0.737 1.959-0.737 1.696 0 3.5 1.402 3.5 4 0 2.629-1.828 4.462-3.469 4.462-0.99 0-1.508-0.429-1.966-0.807-0.343-0.284-0.697-0.578-1.174-0.578-0.82 0-1.354 0.587-1.392 1.551v4.102c0.001 2.235 2.1 4.27 4.404 4.27h6.129c0.928-0.038 1.527-0.585 1.527-1.396 0-0.487-0.277-0.8-0.522-1.076-0.328-0.369-0.666-0.75-0.666-1.734 0-1.766 1.604-2.907 4.085-2.907s4.086 1.141 4.086 2.907c0 0.984-0.339 1.365-0.666 1.734-0.245 0.276-0.523 0.589-0.523 1.076 0 0.822 0.585 1.356 1.548 1.395l3.941 0.001c2.152 0 3.656-1.677 3.656-4.078v-4.65c0.026-0.122 0.334-0.588 0.804-0.588 0.096 0 0.193 0.079 0.409 0.271 0.41 0.367 1.031 0.922 2.393 0.922 2.184-0.001 4.396-1.675 4.396-4.877 0-3.454-2.009-5-4-5-1.344 0-2.12 0.614-2.634 1.020-0.228 0.18-0.442 0.35-0.564 0.35-0.471 0-0.779-0.468-0.802-0.571-0.001-0.008-0.001-0.016-0.002-0.024v-3.583c0-2.429-1.538-4.192-3.656-4.192h-3.921c-0.013-0.001-0.026-0.002-0.040-0.003-0.528-0.020-0.528-0.117-0.528-0.279 0-0.098 0.078-0.195 0.271-0.413 0.365-0.411 0.918-1.034 0.918-2.398zM18.376 5.642c-0.245 0.276-0.523 0.59-0.523 1.077 0 0.55 0.251 1.212 1.471 1.277 0.023 0.003 0.046 0.004 0.070 0.004h3.948c1.744 0 2.658 1.606 2.658 3.192v3.633c0 0.036-0.007 0.071 0 0.105 0.092 0.611 0.842 1.439 1.802 1.439 0.47 0 0.816-0.274 1.185-0.565 0.476-0.377 1.017-0.804 2.013-0.804 1.822 0 3 1.57 3 4 0 2.664-1.761 3.876-3.396 3.876-0.979 0-1.359-0.339-1.727-0.667-0.276-0.246-0.589-0.525-1.075-0.525-0.96 0-1.711 0.829-1.802 1.44-0.007 0.034 0 0.069 0 0.105v4.694c0 1.531-0.823 3.077-2.658 3.077h-3.921c-0.568-0.023-0.568-0.285-0.568-0.396 0-0.097 0.078-0.195 0.271-0.413 0.365-0.412 0.918-1.034 0.918-2.398 0-1.945-1.572-3.907-5.086-3.907-3.041 0-5.085 1.57-5.085 3.907 0 1.364 0.552 1.986 0.918 2.398 0.192 0.217 0.271 0.315 0.271 0.413 0 0.112 0 0.374-0.548 0.396h-6.109c-1.717 0-3.403-1.62-3.403-3.27v-4.082c0.022-0.571 0.281-0.571 0.392-0.571 0.116 0 0.32 0.169 0.537 0.348 0.498 0.413 1.253 1.037 2.603 1.037 2.157 0 4.468-2.195 4.468-5.462 0-3.248-2.318-5-4.5-5-1.34 0-2.079 0.568-2.568 0.945-0.222 0.171-0.414 0.318-0.54 0.318-0.11 0-0.369 0-0.392-0.551v-3.712c0-1.768 1.794-3 3.403-3h6.115c0.016 0 0.031-0.001 0.047-0.002v0c1.235-0.046 1.494-0.722 1.494-1.28 0-0.487-0.277-0.8-0.522-1.076-0.328-0.369-0.666-0.75-0.666-1.735 0-1.739 1.659-2.907 4.129-2.907 2.455 0 4.042 1.141 4.042 2.907 0 0.984-0.339 1.366-0.666 1.735z"></path>
</symbol>
<symbol id="i-envelope" viewBox="0 0 38 32">
<path d="M20.060 0.413c-0.58-0.533-1.539-0.533-2.119 0l-17.688 10.671c-0.15 0.091-0.242 0.253-0.242 0.428v18.922c0 0.863 0.706 1.566 1.574 1.566h34.83c0.868 0 1.574-0.703 1.574-1.566v-18.922c0-0.175-0.092-0.337-0.242-0.428l-17.687-10.671zM18.504 1.24c0.035-0.021 0.066-0.046 0.095-0.074 0.108-0.107 0.25-0.166 0.401-0.166s0.293 0.059 0.4 0.166c0.029 0.028 0.061 0.053 0.095 0.074l17.227 10.394-12.478 7.436c-0.237 0.142-0.315 0.448-0.174 0.686 0.094 0.157 0.26 0.244 0.43 0.244 0.087 0 0.175-0.022 0.255-0.070l12.245-7.29v17.757l-16.935-11.266c-0.538-0.429-1.594-0.429-2.096-0.025l-16.969 11.286v-17.752l12.244 7.29c0.080 0.048 0.169 0.070 0.256 0.070 0.17 0 0.336-0.087 0.43-0.244 0.141-0.237 0.063-0.544-0.174-0.686l-12.479-7.436 17.227-10.394zM36.090 31h-34.188l16.656-11.086c0.173-0.138 0.712-0.137 0.919 0.025l16.613 11.061zM6.5 13h25c0.276 0 0.5-0.224 0.5-0.5s-0.224-0.5-0.5-0.5h-25c-0.276 0-0.5 0.224-0.5 0.5s0.224 0.5 0.5 0.5z"></path>
</symbol>
<symbol id="i-streetsign" viewBox="0 0 29 32">
<path d="M15 31.5v-9.5c0-0.276-0.133-1-0.409-1s-0.591 0.224-0.591 0.5v10c0 0.276 0.314 0.5 0.591 0.5s0.409-0.224 0.409-0.5zM15.091 1.562v-1.062c0-0.276-0.224-0.5-0.5-0.5s-0.5 0.224-0.5 0.5v1.062c0 0.276 0.224 0.5 0.5 0.5s0.5-0.223 0.5-0.5zM3.89 3.471l-3.567 2.798c-0.205 0.189-0.323 0.456-0.323 0.731s0.118 0.542 0.354 0.758l3.505 2.745c0.307 0.283 0.854 0.497 1.273 0.497h13.828c0.573 0 1.040-0.463 1.040-1.033v-5.934c0-0.57-0.467-1.033-1.040-1.033h-13.828c-0.419 0-0.966 0.214-1.242 0.471zM19 9.967c0 0.015-0.018 0.033-0.040 0.033h-13.828c-0.17 0-0.471-0.117-0.625-0.258l-3.536-2.713 3.566-2.798c0.125-0.114 0.425-0.231 0.595-0.231l13.868 0.033v5.934zM25.141 12.497c-0.307-0.283-0.854-0.497-1.273-0.497h-13.828c-0.573 0-1.040 0.463-1.040 1.033v5.935c0 0.569 0.467 1.032 1.040 1.032h13.828c0.419 0 0.966-0.214 1.243-0.471l3.566-2.798c0.205-0.189 0.323-0.456 0.323-0.731s-0.118-0.542-0.354-0.758l-3.505-2.745zM10 13h13.868c0.17 0 0.471 0.117 0.625 0.258l3.536 2.713-3.566 2.798c-0.125 0.114-0.425 0.231-0.595 0.231h-13.868v-6z"></path>
</symbol>
<symbol id="i-lightbulb" viewBox="0 0 22 32">
<path d="M11 0c-5.29 0-11 4.206-11 11 0 3.353 1.334 6.174 3.896 8.312 0.027 0.034 0.058 0.063 0.092 0.088 1.901 2.062 1.997 2.454 2.010 3.361 0.006 0.359 0.003 0.465 0 0.523l-0.004 0.209c-0.015 0.452-0.038 1.209 0.899 1.495l8.094 1.781c0.036 0.008 0.072 0.012 0.107 0.012 0.23 0 0.437-0.159 0.488-0.393 0.060-0.27-0.111-0.537-0.381-0.596l-8.055-1.771c-0.155-0.047-0.168-0.051-0.154-0.498l0.003-0.191c0 0 0.010-0.078 0.002-0.586-0.019-1.269-0.295-1.882-2.309-4.059-0.039-0.048-0.086-0.088-0.138-0.118-2.356-2.003-3.55-4.549-3.55-7.569 0-6.177 5.19-10 10-10 4.916 0 10 3.741 10 10 0 3.978-1.928 6.171-3.518 7.551-0.055 0.026-0.104 0.063-0.147 0.109-2.037 2.204-2.313 2.817-2.332 4.086 0 0.030-0.001 0.065 0 0.103l-0.001 0.035c-0.003 0.076-0.014 0.118-0.013 0.134-0.034-0.005-0.117-0.018-0.117-0.018l-4.195-0.987c-0.272-0.062-0.538 0.104-0.601 0.372s0.103 0.538 0.372 0.602l4.144 0.972c0.055 0.020 0.553 0.182 0.973-0.113 0.183-0.129 0.396-0.382 0.434-0.866l0.003-0.047c0.001-0.032 0.002-0.065 0.002-0.099 0-0.009 0-0.018-0.001-0.026l0.001-0.046c0.013-0.902 0.107-1.294 2.005-3.356 0.009-0.007 0.019-0.014 0.027-0.022 2.667-2.241 3.964-4.984 3.964-8.384 0-6.885-5.593-11-11-11zM15 29.5c0.229 0 0.435-0.157 0.487-0.39 0.062-0.269-0.107-0.537-0.377-0.598l-8-1.814c-0.271-0.060-0.537 0.108-0.598 0.377-0.062 0.269 0.107 0.537 0.377 0.598l8 1.814c0.038 0.009 0.075 0.013 0.111 0.013zM7.609 29.554c-0.271-0.060-0.536 0.109-0.598 0.378-0.060 0.27 0.109 0.537 0.379 0.597l6.5 1.458c0.038 0.009 0.074 0.013 0.11 0.013 0.229 0 0.436-0.158 0.488-0.391 0.060-0.27-0.109-0.537-0.379-0.597l-6.5-1.458z"></path>
</symbol>
<symbol id="i-scissors" viewBox="0 0 32 32">
<path d="M25.5 29c1.93 0 3.5-1.57 3.5-3.5s-1.57-3.5-3.5-3.5-3.5 1.57-3.5 3.5 1.57 3.5 3.5 3.5zM25.5 23c1.378 0 2.5 1.121 2.5 2.5s-1.122 2.5-2.5 2.5-2.5-1.121-2.5-2.5 1.122-2.5 2.5-2.5zM18.732 23.95c0 1.451 0.357 3.271 0.836 4.301 0.98 2.487 2.908 3.749 5.732 3.749 3.694 0 6.7-3.006 6.7-6.7 0-3.593-2.818-6.2-6.7-6.2-4.413 0-5.853-2.371-5.91-2.469-0.020-0.034-0.043-0.066-0.070-0.095l-15.355-16.378c-0.14-0.149-0.358-0.197-0.549-0.123s-0.316 0.26-0.316 0.465c0 9.651 6.436 14.715 11.135 18.411 2.513 1.977 4.497 3.537 4.497 5.039zM4.144 1.811l14.412 15.372c0.268 0.424 2.044 2.917 6.744 2.917 3.303 0 5.7 2.187 5.7 5.2 0 3.144-2.557 5.7-5.7 5.7-2.405 0-3.976-1.020-4.813-3.144-0.366-0.786-0.755-2.423-0.755-3.906 0-1.987-2.153-3.681-4.878-5.825-4.317-3.396-10.152-7.985-10.71-16.314zM3 25.5c0 1.93 1.57 3.5 3.5 3.5s3.5-1.57 3.5-3.5-1.57-3.5-3.5-3.5-3.5 1.57-3.5 3.5zM9 25.5c0 1.379-1.122 2.5-2.5 2.5s-2.5-1.121-2.5-2.5 1.122-2.5 2.5-2.5 2.5 1.121 2.5 2.5zM20.634 15.471c-0.204 0.186-0.219 0.502-0.033 0.706 0.099 0.108 0.234 0.163 0.37 0.163 0.12 0 0.241-0.043 0.337-0.131 3.535-3.22 7.592-7.915 7.592-15.709 0-0.205-0.125-0.39-0.316-0.465-0.19-0.073-0.408-0.026-0.549 0.123l-10.92 11.646c-0.189 0.201-0.179 0.518 0.023 0.706s0.517 0.18 0.707-0.022l10.014-10.68c-0.426 6.63-4.046 10.766-7.225 13.663zM10.911 18.896c0.257-0.1 0.385-0.389 0.286-0.646s-0.39-0.387-0.647-0.285c-0.211 0.082-0.439 0.183-0.684 0.292-0.844 0.375-1.895 0.843-3.166 0.843-3.882 0-6.7 2.607-6.7 6.2 0 3.694 3.006 6.7 6.7 6.7 2.824 0 4.752-1.262 5.719-3.722 0.506-1.085 0.581-3.46 0.581-4.778 0-0.269 0.762-0.843 1.218-1.186 0.421-0.316 0.856-0.644 1.156-0.982 0.183-0.207 0.164-0.523-0.042-0.706-0.206-0.184-0.523-0.164-0.706 0.042-0.234 0.265-0.628 0.561-1.010 0.848-0.831 0.626-1.616 1.216-1.616 1.984 0 2.072-0.182 3.701-0.499 4.384-0.825 2.096-2.396 3.116-4.801 3.116-3.143 0-5.7-2.557-5.7-5.7 0-3.014 2.397-5.2 5.7-5.2 1.484 0 2.691-0.538 3.573-0.931 0.228-0.102 0.441-0.196 0.638-0.273zM15.194 16.984c0 0.445 0.361 0.806 0.806 0.806s0.806-0.361 0.806-0.806c0-0.445-0.361-0.806-0.806-0.806s-0.806 0.361-0.806 0.806z"></path>
</symbol>
<symbol id="i-strategy" viewBox="0 0 23 32">
<path d="M22 31.5c0-0.276-0.224-0.5-0.5-0.5h-18c-0.276 0-0.5 0.224-0.5 0.5s0.224 0.5 0.5 0.5h18c0.276 0 0.5-0.224 0.5-0.5zM1.274 9.354c-0.418 0.278-1.052 1.124-0.451 2.326 0.499 0.997 1.54 2.217 2.647 2.539 0.564 0.166 1.12 0.097 1.605-0.196 1.099-0.658 2.397-1.548 2.947-1.93 0.694 0.351 1.57 0.424 2.46 0.195 0.004-0.001 0.008-0.003 0.012-0.004-0.052 1.651-0.611 2.682-3.344 5.22-2.436 2.261-3.881 5.231-3.867 7.946 0.010 1.781 0.659 3.31 1.88 4.419 0.093 0.085 0.213 0.131 0.337 0.131h14c0.276 0 0.5-0.224 0.5-0.5s-0.224-0.5-0.5-0.5h-13.801c-0.919-0.905-1.407-2.13-1.415-3.555-0.013-2.402 1.347-5.165 3.547-7.208 2.915-2.706 3.669-3.988 3.669-6.237 0-0.041-0.014-0.077-0.023-0.115 0.547-0.295 1.020-0.685 1.343-1.157 0.405-0.59 1.277-2.105 0.63-3.446-0.12-0.247-0.419-0.352-0.668-0.232s-0.353 0.419-0.232 0.668c0.291 0.603 0.084 1.517-0.554 2.445-0.368 0.536-1.026 0.969-1.761 1.157-0.747 0.191-1.457 0.107-1.952-0.232-0.173-0.118-0.4-0.117-0.571 0.004-0.018 0.012-1.777 1.251-3.149 2.074-0.251 0.15-0.516 0.182-0.812 0.094-0.774-0.226-1.625-1.212-2.032-2.026-0.329-0.658 0.008-0.972 0.161-1.084 3.447-2.977 5.177-6.070 5.248-6.201 0.066-0.122 0.080-0.266 0.036-0.399-0.005-0.015-0.35-1.063-0.54-2.033 1.046 0.63 2.845 1.51 4.718 1.51 2.604 0 8.658 0.972 8.658 9.976 0 0.049-0.009 4.944-1.97 10.327-0.095 0.259 0.039 0.546 0.299 0.641 0.057 0.019 0.114 0.029 0.171 0.029 0.204 0 0.396-0.126 0.47-0.329 2.021-5.548 2.031-10.466 2.030-10.671 0-10.183-7.393-10.974-9.658-10.974-2.509 0-5.012-1.903-5.036-1.923-0.153-0.115-0.355-0.134-0.527-0.051s-0.279 0.258-0.279 0.448c0 0.981 0.465 2.568 0.646 3.147-0.418 0.698-2.066 3.281-4.872 5.707zM17.485 1.54c-1.601-1.079-3.391-1.54-5.985-1.54-0.276 0-0.5 0.224-0.5 0.5s0.224 0.5 0.5 0.5c2.38 0 4.003 0.409 5.427 1.369 2.314 1.562 5.073 4.674 5.073 10.631 0 1.451 0 3.438-0.985 7.379-0.066 0.268 0.096 0.539 0.364 0.606 0.041 0.010 0.081 0.015 0.121 0.015 0.225 0 0.429-0.151 0.485-0.379 1.015-4.059 1.015-6.118 1.015-7.621 0-6.396-2.999-9.763-5.515-11.46z"></path>
</symbol>
<symbol id="i-bike1" viewBox="0 0 56 32">
<path d="M45.5 11c-1.924 0-3.723 0.529-5.276 1.436l-6.801-10.436h9.599c-0.013 0.498-0.129 1.331-0.699 1.986-0.587 0.673-1.536 1.014-2.823 1.014-0.276 0-0.5 0.224-0.5 0.5s0.224 0.5 0.5 0.5c1.589 0 2.792-0.456 3.576-1.356 1.163-1.336 0.93-3.136 0.919-3.212-0.034-0.247-0.245-0.432-0.495-0.432h-11c-0.184 0-0.353 0.101-0.439 0.262-0.088 0.161-0.080 0.357 0.021 0.512l2.831 4.344h-15.865l-3.083-5.118h5.535c0.276 0 0.5-0.224 0.5-0.5s-0.224-0.5-0.5-0.5h-9c-0.276 0-0.5 0.224-0.5 0.5s0.224 0.5 0.5 0.5h2.314c0.010 0.023 0.012 0.048 0.025 0.070l3.412 5.662-3.054 5.39c-1.415-0.711-3.007-1.122-4.697-1.122-5.79 0-10.5 4.71-10.5 10.5s4.71 10.5 10.5 10.5c5.588 0 10.157-4.391 10.42-10h11.080c0.029 0.579-0.096 1.368-0.644 1.989-0.592 0.671-1.553 1.011-2.856 1.011-0.276 0-0.5 0.224-0.5 0.5s0.224 0.5 0.5 0.5c1.608 0 2.824-0.457 3.614-1.358 1.142-1.304 0.927-3.036 0.918-3.109-0.033-0.249-0.245-0.435-0.496-0.435h-3.928l7.047-13.84 3.73 5.724c-2.65 1.907-4.385 5.010-4.385 8.518 0 5.79 4.71 10.5 10.5 10.5s10.5-4.71 10.5-10.5-4.71-10.5-10.5-10.5zM34.605 7l-6.848 13.568-8.106-13.568h14.954zM18.843 7.715l8.065 13.383h-5.928c-0.136-3.575-2.062-6.692-4.912-8.484l2.775-4.899zM19.98 21.098h-8.719l4.314-7.615c2.548 1.619 4.269 4.412 4.405 7.615zM10.5 31c-5.238 0-9.5-4.262-9.5-9.5s4.262-9.5 9.5-9.5c1.51 0 2.934 0.364 4.204 0.993l-4.736 8.358c-0.088 0.154-0.087 0.344 0.003 0.498 0.089 0.153 0.254 0.248 0.432 0.15h9.567c-0.311 5.058-4.433 9.001-9.47 9.001zM45.5 31c-5.238 0-9.5-4.262-9.5-9.5 0-3.157 1.554-5.952 3.932-7.68l5.247 8.051c0.096 0.146 0.256 0.227 0.419 0.227 0.094 0 0.188-0.026 0.273-0.081 0.23-0.15 0.296-0.461 0.146-0.692l-5.247-8.051c1.395-0.806 3.007-1.274 4.73-1.274 5.238 0 9.5 4.262 9.5 9.5s-4.262 9.5-9.5 9.5z"></path>
</symbol>
<symbol id="i-globe" viewBox="0 0 25 32">
<path d="M13.552 22c5.79 0 10.5-4.71 10.5-10.5s-4.71-10.5-10.5-10.5-10.5 4.71-10.5 10.5 4.71 10.5 10.5 10.5zM13.552 2c5.238 0 9.5 4.262 9.5 9.5s-4.262 9.5-9.5 9.5-9.5-4.262-9.5-9.5 4.261-9.5 9.5-9.5zM9.052 28c-1.141 0-2 0.859-2 2v1.5c0 0.276 0.224 0.5 0.5 0.5h12c0.276 0 0.5-0.224 0.5-0.5v-1.425c0-1.164-0.879-2.075-2-2.075h-9zM19.052 30.075v0.925h-11v-1c0-0.589 0.411-1 1-1h9c0.57 0 1 0.462 1 1.075zM13.055 24.978c0 0.006-0.003 0.010-0.003 0.016v1.604c0 0.276 0.224 0.5 0.5 0.5s0.5-0.224 0.5-0.5v-1.604c0-0.007-0.004-0.013-0.004-0.020 3.233-0.129 6.268-1.376 8.638-3.581l1.18 1.179c0.195 0.195 0.512 0.195 0.707 0s0.195-0.512 0-0.707l-1.526-1.526c-0.195-0.195-0.512-0.195-0.707 0-2.362 2.361-5.501 3.661-8.84 3.661s-6.478-1.3-8.839-3.661-3.661-5.5-3.661-8.839 1.3-6.478 3.661-8.839c0.195-0.195 0.195-0.512 0-0.707l-1.526-1.526c-0.195-0.195-0.512-0.195-0.707 0s-0.195 0.512 0 0.707l1.179 1.18c-2.331 2.503-3.607 5.747-3.607 9.185 0 3.605 1.404 6.996 3.954 9.546 2.444 2.444 5.663 3.821 9.101 3.932z"></path>
</symbol>
<symbol id="i-chat" viewBox="0 0 42 32">
<path d="M35.652 14.023c-0.264-0.082-0.544 0.062-0.628 0.325-0.083 0.263 0.062 0.544 0.325 0.628 3.908 1.245 5.651 3.102 5.651 6.024 0 2.599-2.371 4.616-3.783 5.588-0.136 0.094-0.217 0.247-0.217 0.412v3.823c-0.73-0.272-2.003-0.89-3.126-2.155-0.117-0.131-0.295-0.191-0.468-0.159-0.285 0.055-0.576 0.133-0.871 0.212-0.51 0.137-1.036 0.279-1.535 0.279-2.568 0-4.366-0.552-6.204-1.903-0.224-0.164-0.535-0.115-0.699 0.107-0.164 0.223-0.116 0.535 0.106 0.699 2.027 1.49 3.996 2.097 6.797 2.097 0.631 0 1.223-0.159 1.795-0.313 0.178-0.049 0.355-0.097 0.53-0.138 1.869 1.974 3.983 2.423 4.075 2.441 0.033 0.007 0.066 0.010 0.1 0.010 0.114 0 0.227-0.039 0.316-0.113 0.117-0.095 0.184-0.237 0.184-0.387v-4.239c2.582-1.841 4-4.057 4-6.261 0-3.381-2.017-5.598-6.348-6.977zM33 13.5c0-7.696-7.018-13.5-16.323-13.5-9.352 0-16.677 5.931-16.677 13.502 0 4.539 3.211 7.791 6 9.759v6.636c0 0.17 0.086 0.327 0.228 0.42 0.083 0.053 0.177 0.080 0.272 0.080 0.069 0 0.139-0.015 0.205-0.044 0.146-0.065 3.559-1.616 6.479-4.809 1.265 0.235 2.696 0.461 3.994 0.461 9.463 0 15.822-5.026 15.822-12.505zM17.177 25.005c-1.31 0-2.799-0.251-4.083-0.496-0.173-0.031-0.351 0.028-0.468 0.159-2.050 2.312-4.459 3.781-5.626 4.414v-6.082c0-0.165-0.081-0.318-0.217-0.412-2.638-1.815-5.783-4.863-5.783-9.086 0-7.011 6.886-12.502 15.677-12.502 8.736 0 15.323 5.374 15.323 12.5 0 6.882-5.957 11.505-14.823 11.505zM16.5 11.5c-1.103 0-2 0.897-2 2s0.897 2 2 2 2-0.897 2-2-0.897-2-2-2zM16.5 14.5c-0.551 0-1-0.448-1-1s0.449-1 1-1 1 0.448 1 1-0.449 1-1 1zM23.5 11.5c-1.103 0-2 0.897-2 2s0.897 2 2 2 2-0.897 2-2-0.897-2-2-2zM23.5 14.5c-0.551 0-1-0.448-1-1s0.449-1 1-1 1 0.448 1 1-0.449 1-1 1zM9.5 11.595c-1.103 0-2 0.897-2 2s0.897 2 2 2 2-0.897 2-2-0.897-2-2-2zM9.5 14.595c-0.551 0-1-0.448-1-1s0.449-1 1-1 1 0.448 1 1-0.449 1-1 1z"></path>
</symbol>
<symbol id="i-global" viewBox="0 0 32 32">
<path d="M0.034 16.668c0.354 8.511 7.369 15.332 15.966 15.332s15.612-6.821 15.966-15.332c0.019-0.053 0.034-0.108 0.034-0.168 0-0.036-0.013-0.067-0.020-0.1 0.003-0.134 0.020-0.265 0.020-0.4 0-8.822-7.178-16-16-16s-16 7.178-16 16c0 0.135 0.017 0.266 0.020 0.4-0.007 0.033-0.020 0.064-0.020 0.1 0 0.060 0.015 0.115 0.034 0.168zM24.921 22.742c-1.319-0.552-2.735-0.979-4.215-1.271 0.158-1.453 0.251-2.962 0.28-4.47h4.98c-0.091 2.054-0.456 3.993-1.045 5.741zM26.965 17h3.984c-0.186 2.806-1.138 5.403-2.663 7.579-0.759-0.533-1.577-1.019-2.457-1.44 0.645-1.869 1.042-3.943 1.136-6.139zM12.389 22.286c1.178-0.184 2.387-0.286 3.611-0.286s2.433 0.102 3.61 0.286c-0.694 5.335-2.21 8.714-3.61 8.714s-2.916-3.379-3.611-8.714zM13.908 30.664c-2.751-0.882-5.078-3.471-6.482-6.984 1.246-0.525 2.586-0.935 3.99-1.217 0.459 3.496 1.298 6.542 2.492 8.201zM12.274 10.709c1.217 0.188 2.465 0.291 3.726 0.291s2.509-0.103 3.726-0.291c0.172 1.62 0.274 3.388 0.274 5.291h-8c0-1.903 0.102-3.671 0.274-5.291zM19.985 17c-0.028 1.525-0.118 2.961-0.26 4.291-1.216-0.188-2.463-0.291-3.725-0.291s-2.509 0.103-3.726 0.291c-0.173-1.626-0.237-3.057-0.26-4.291h7.971zM20.585 22.463c1.404 0.282 2.743 0.692 3.99 1.217-1.404 3.513-3.731 6.102-6.482 6.984 1.193-1.659 2.032-4.705 2.492-8.201zM21 16c0-1.836-0.102-3.696-0.294-5.47 1.48-0.292 2.896-0.72 4.215-1.271 0.684 2.029 1.079 4.315 1.079 6.741h-5zM20.585 9.537c-0.46-3.496-1.298-6.543-2.493-8.201 2.751 0.882 5.078 3.471 6.482 6.984-1.246 0.525-2.585 0.936-3.989 1.217zM19.611 9.714c-1.178 0.184-2.387 0.286-3.611 0.286s-2.433-0.102-3.611-0.286c0.695-5.335 2.211-8.714 3.611-8.714s2.916 3.379 3.611 8.714zM11.415 9.537c-1.404-0.282-2.743-0.692-3.99-1.217 1.404-3.513 3.731-6.102 6.482-6.984-1.193 1.659-2.032 4.705-2.492 8.201zM11.294 10.53c-0.192 1.774-0.294 3.634-0.294 5.47h-5c0-2.426 0.395-4.712 1.079-6.742 1.319 0.552 2.735 0.979 4.215 1.272zM11.014 17c0.029 1.508 0.122 3.017 0.28 4.471-1.48 0.292-2.896 0.72-4.215 1.271-0.589-1.748-0.954-3.687-1.045-5.742h4.98zM6.17 23.139c-0.88 0.422-1.697 0.907-2.456 1.44-1.525-2.176-2.477-4.772-2.663-7.579h3.984c0.094 2.196 0.491 4.27 1.135 6.139zM4.313 25.38c0.685-0.479 1.417-0.922 2.207-1.305 1.004 2.485 2.449 4.548 4.186 5.943-2.526-0.958-4.729-2.568-6.393-4.638zM21.294 30.017c1.738-1.394 3.182-3.458 4.186-5.943 0.79 0.384 1.522 0.826 2.207 1.305-1.664 2.071-3.867 3.681-6.393 4.638zM27 16c0-2.567-0.428-4.987-1.17-7.139 0.88-0.422 1.698-0.907 2.457-1.44 1.704 2.434 2.713 5.389 2.713 8.579h-4zM27.688 6.62c-0.685 0.479-1.417 0.921-2.207 1.305-1.004-2.485-2.449-4.549-4.186-5.943 2.525 0.958 4.728 2.568 6.393 4.638zM10.706 1.983c-1.738 1.394-3.182 3.458-4.186 5.943-0.791-0.384-1.522-0.827-2.207-1.306 1.664-2.070 3.867-3.68 6.393-4.637zM3.714 7.421c0.758 0.533 1.576 1.018 2.456 1.44-0.742 2.152-1.17 4.572-1.17 7.139h-4c0-3.19 1.009-6.145 2.714-8.579z"></path>
</symbol>
<symbol id="i-clock" viewBox="0 0 32 32">
<path d="M16 32c8.822 0 16-7.178 16-16s-7.178-16-16-16-16 7.178-16 16 7.178 16 16 16zM16 1c8.271 0 15 6.729 15 15s-6.729 15-15 15-15-6.729-15-15 6.729-15 15-15zM20.061 21.768c0.098 0.098 0.226 0.146 0.354 0.146s0.256-0.049 0.354-0.146c0.195-0.195 0.195-0.512 0-0.707l-4.769-4.768v-6.974c0-0.276-0.224-0.5-0.5-0.5s-0.5 0.224-0.5 0.5v7.181c0 0.133 0.053 0.26 0.146 0.354l4.915 4.914zM3 16c0 0.552 0.448 1 1 1s1-0.448 1-1c0-0.552-0.448-1-1-1s-1 0.448-1 1zM27 16c0 0.552 0.448 1 1 1s1-0.448 1-1c0-0.552-0.448-1-1-1s-1 0.448-1 1zM15 4c0 0.552 0.448 1 1 1s1-0.448 1-1c0-0.552-0.448-1-1-1s-1 0.448-1 1zM15 28c0 0.552 0.448 1 1 1s1-0.448 1-1c0-0.552-0.448-1-1-1s-1 0.448-1 1zM7 8c0 0.552 0.448 1 1 1s1-0.448 1-1c0-0.552-0.448-1-1-1s-1 0.448-1 1zM23 24c0 0.552 0.448 1 1 1s1-0.448 1-1c0-0.552-0.448-1-1-1s-1 0.448-1 1zM24 8c0 0.552 0.448 1 1 1s1-0.448 1-1c0-0.552-0.448-1-1-1s-1 0.448-1 1zM7 24c0 0.552 0.448 1 1 1s1-0.448 1-1c0-0.552-0.448-1-1-1s-1 0.448-1 1z"></path>
</symbol>
<symbol id="i-android" viewBox="0 0 32 32">
<path fill="#3ddc84" style="fill: var(--color1, #3ddc84)" d="M32 25.333h-32c0.344-3.051 1.396-5.801 2.988-8.158l-0.041 0.064c1.261-1.929 2.896-3.509 4.813-4.669l0.613-0.344-2.693-4.547c-0.062-0.101-0.099-0.223-0.099-0.353 0-0.244 0.129-0.459 0.323-0.579l0.003-0.002c0.098-0.059 0.216-0.094 0.342-0.094 0.246 0 0.461 0.133 0.576 0.331l0.002 0.003 2.773 4.667c1.849-0.76 3.995-1.201 6.244-1.201 0.074 0 0.147 0 0.221 0.001l-0.011-0c0.059-0.001 0.129-0.001 0.198-0.001 2.212 0 4.32 0.441 6.243 1.241l-0.108-0.040 2.76-4.667c0.118-0.199 0.331-0.331 0.576-0.331 0.133 0 0.256 0.039 0.36 0.106l-0.003-0.002c0.191 0.123 0.316 0.334 0.316 0.574 0 0.133-0.038 0.257-0.104 0.362l0.002-0.003-2.693 4.56 0.667 0.373c1.972 1.241 3.594 2.859 4.803 4.765l0.037 0.062c1.464 2.247 2.488 4.913 2.882 7.779l0.011 0.101zM22 19.36c0 0.736 0.597 1.333 1.333 1.333v0c0.736 0 1.333-0.597 1.333-1.333v0c0-0.736-0.597-1.333-1.333-1.333v0c-0.736 0-1.333 0.597-1.333 1.333v0zM7.333 19.36c0 0.736 0.597 1.333 1.333 1.333v0c0.736 0 1.333-0.597 1.333-1.333v0c0-0.736-0.597-1.333-1.333-1.333v0c-0.736 0-1.333 0.597-1.333 1.333v0z"></path>
</symbol>
<symbol id="i-bootstrap" viewBox="0 0 32 32">
<path fill="#563d7c" style="fill: var(--color2, #563d7c)" d="M26.667 0h-21.333c-2.943 0.008-5.325 2.391-5.333 5.333v21.333c0 2.933 2.4 5.333 5.333 5.333h21.333c2.933 0 5.333-2.4 5.333-5.333v-21.333c0-2.933-2.4-5.333-5.333-5.333zM23.751 22.473c-0.267 0.643-0.689 1.209-1.231 1.645-0.56 0.453-1.269 0.827-2.143 1.093-0.872 0.271-1.909 0.407-3.111 0.407h-8.576v-18.667h9.069c1.677 0 3.021 0.377 4.027 1.147 1.013 0.773 1.517 1.925 1.517 3.48 0 0.94-0.229 1.747-0.691 2.413-0.459 0.663-1.12 1.181-1.973 1.541v0.061c1.139 0.24 2.020 0.78 2.6 1.62s0.877 1.901 0.877 3.183c0 0.717-0.139 1.4-0.4 2.037zM20.049 17.873c-0.547-0.5-1.315-0.744-2.307-0.744h-5.763v5.824h5.779c0.987 0 1.76-0.256 2.307-0.773 0.547-0.513 0.827-1.245 0.827-2.187-0.009-0.92-0.28-1.632-0.827-2.12zM19.249 14.109c0.528-0.448 0.787-1.089 0.787-1.925 0-0.939-0.233-1.605-0.707-1.987-0.469-0.38-1.147-0.577-2.037-0.577h-5.333v5.151h5.333c0.777 0 1.44-0.227 1.957-0.661z"></path>
</symbol>
<symbol id="i-css3" viewBox="0 0 32 32">
<path fill="#1572b6" style="fill: var(--color3, #1572b6)" d="M2 0h28l-2.547 28.751-11.484 3.249-11.42-3.251zM24.787 5.884l-17.573-0.004 0.284 3.496 13.5 0.003-0.34 3.621h-8.853l0.32 3.431h8.243l-0.488 4.697-3.88 1.072-3.941-1.080-0.251-2.813h-3.48l0.387 5.14 7.287 2.271 7.164-2.040z"></path>
</symbol>
<symbol id="i-formstack" viewBox="0 0 32 32">
<path fill="#21b573" style="fill: var(--color4, #21b573)" d="M25.333 5.38h1.867c0.441 0 0.8 0.359 0.8 0.8v19.64c0 0.441-0.359 0.8-0.8 0.8h-1.867zM29.333 8.035h1.867c0.441 0 0.8 0.359 0.8 0.8v14.329c0 0.441-0.359 0.8-0.8 0.8h-1.867zM0.8 2.725h22.4c0.441 0 0.8 0.359 0.8 0.8v24.949c0 0.441-0.359 0.8-0.8 0.8h-22.4c-0.441 0-0.8-0.359-0.8-0.8v-24.949c0-0.441 0.359-0.8 0.8-0.8zM5.6 6.973c-0.147 0-0.267 0.12-0.267 0.267v9.8c0 0.060 0.020 0.119 0.059 0.167 0.092 0.115 0.26 0.135 0.375 0.043l12.304-9.8c0.064-0.051 0.1-0.128 0.1-0.208 0-0.147-0.12-0.267-0.267-0.267zM5.333 22.913c0 0.053 0.016 0.107 0.047 0.151 0.083 0.121 0.249 0.152 0.371 0.069l10.101-6.912c0.072-0.049 0.116-0.132 0.116-0.22 0-0.147-0.12-0.267-0.267-0.267h-6.515c-0.060 0-0.117 0.020-0.164 0.056l-3.587 2.803c-0.065 0.051-0.103 0.128-0.103 0.211zM5.448 24.456c-0.072 0.049-0.115 0.132-0.115 0.219v0.116c0 0.141 0.115 0.256 0.256 0.256h3.744c0.147 0 0.267-0.12 0.267-0.267v-2.696c0-0.055-0.016-0.108-0.048-0.152-0.084-0.121-0.251-0.151-0.371-0.067z"></path>
</symbol>
<symbol id="i-github" viewBox="0 0 32 32">
<path d="M16 0.396c-8.84 0-16 7.164-16 16 0 7.071 4.584 13.067 10.94 15.18 0.8 0.151 1.093-0.344 1.093-0.769 0-0.38-0.013-1.387-0.020-2.72-4.451 0.965-5.389-2.147-5.389-2.147-0.728-1.847-1.78-2.34-1.78-2.34-1.449-0.992 0.112-0.972 0.112-0.972 1.607 0.112 2.451 1.648 2.451 1.648 1.427 2.447 3.745 1.74 4.66 1.331 0.144-1.035 0.556-1.74 1.013-2.14-3.553-0.4-7.288-1.776-7.288-7.907 0-1.747 0.62-3.173 1.647-4.293-0.18-0.404-0.72-2.031 0.14-4.235 0 0 1.34-0.429 4.4 1.64 1.28-0.356 2.64-0.532 4-0.54 1.36 0.008 2.72 0.184 4 0.54 3.040-2.069 4.38-1.64 4.38-1.64 0.86 2.204 0.32 3.831 0.16 4.235 1.020 1.12 1.64 2.547 1.64 4.293 0 6.147-3.74 7.5-7.3 7.893 0.56 0.48 1.080 1.461 1.080 2.96 0 2.141-0.020 3.861-0.020 4.381 0 0.42 0.28 0.92 1.1 0.76 6.401-2.099 10.981-8.099 10.981-15.159 0-8.836-7.164-16-16-16z"></path>
</symbol>
<symbol id="i-google" viewBox="0 0 32 32">
<path fill="#4285f4" style="fill: var(--color5, #4285f4)" d="M16.32 13.713v5.487h9.075c-0.367 2.353-2.741 6.899-9.075 6.899-5.46 0-9.919-4.519-9.919-10.099s4.46-10.099 9.919-10.099c3.107 0 5.188 1.319 6.38 2.465l4.339-4.184c-2.787-2.601-6.4-4.183-10.719-4.183-8.847 0-16 7.153-16 16s7.153 16 16 16c9.235 0 15.36-6.492 15.36-15.635 0-1.051-0.113-1.853-0.252-2.652z"></path>
</symbol>
<symbol id="i-html5" viewBox="0 0 32 32">
<path fill="#e34f26" style="fill: var(--color6, #e34f26)" d="M2 0h28l-2.547 28.751-11.484 3.249-11.419-3.251zM11.375 13l-0.309-3.624 13.412 0.004 0.307-3.496-17.568-0.004 0.931 10.68h12.168l-0.435 4.568-3.88 1.072-3.94-1.080-0.251-2.813h-3.479l0.44 5.561 7.229 1.933 7.172-1.924 0.992-10.876z"></path>
</symbol>
<symbol id="i-javascript" viewBox="0 0 32 32">
<path fill="#f7df1e" style="fill: var(--color7, #f7df1e)" d="M0 0h32v32h-32zM29.379 24.368c-0.233-1.46-1.184-2.687-4.004-3.831-0.981-0.46-2.072-0.78-2.396-1.52-0.121-0.44-0.14-0.68-0.061-0.94 0.2-0.861 1.22-1.12 2.020-0.88 0.52 0.16 1 0.56 1.301 1.2 1.379-0.901 1.379-0.901 2.34-1.5-0.36-0.56-0.539-0.801-0.781-1.040-0.84-0.94-1.959-1.42-3.779-1.379l-0.94 0.119c-0.901 0.22-1.76 0.7-2.28 1.34-1.52 1.721-1.081 4.721 0.759 5.961 1.82 1.36 4.481 1.659 4.821 2.94 0.32 1.56-1.16 2.060-2.621 1.88-1.081-0.24-1.68-0.781-2.34-1.781l-2.44 1.401c0.28 0.64 0.6 0.919 1.080 1.479 2.32 2.341 8.12 2.221 9.161-1.339 0.039-0.12 0.32-0.94 0.099-2.2zM17.401 14.708h-2.997c0 2.584-0.012 5.152-0.012 7.74 0 1.643 0.084 3.151-0.184 3.615-0.44 0.919-1.573 0.801-2.088 0.64-0.528-0.261-0.796-0.621-1.107-1.14-0.084-0.14-0.147-0.261-0.169-0.261l-2.433 1.5c0.407 0.84 1 1.563 1.765 2.023 1.14 0.68 2.672 0.9 4.276 0.54 1.044-0.301 1.944-0.921 2.415-1.881 0.68-1.24 0.536-2.76 0.529-4.461 0.016-2.739 0-5.479 0-8.239z"></path>
</symbol>
<symbol id="i-slack" viewBox="0 0 32 32">
<path fill="#4a154b" style="fill: var(--color8, #4a154b)" d="M6.723 20.22c-0.004 1.855-1.505 3.358-3.359 3.364h-0.001c-1.856-0.005-3.359-1.508-3.363-3.364v-0c0.005-1.854 1.508-3.356 3.362-3.36h3.36zM8.417 20.22c0.005-1.854 1.507-3.355 3.361-3.36h0c1.854 0.005 3.356 1.506 3.361 3.36v8.418c-0.005 1.855-1.507 3.357-3.361 3.363h-0.001c-1.855-0.005-3.357-1.508-3.361-3.362v-0zM11.779 6.723c-1.854-0.005-3.355-1.506-3.361-3.359v-0.001c0.005-1.855 1.507-3.357 3.361-3.363h0.001c1.855 0.005 3.357 1.508 3.361 3.362v3.36zM11.779 8.417c1.854 0.005 3.356 1.507 3.361 3.361v0.001c-0.005 1.854-1.507 3.356-3.361 3.361h-8.417c-1.855-0.005-3.357-1.507-3.363-3.361v-0.001c0.005-1.855 1.508-3.357 3.362-3.361h0zM25.275 11.779c0.005-1.855 1.508-3.357 3.362-3.361h0c1.855 0.005 3.357 1.507 3.363 3.361v0.001c-0.005 1.855-1.508 3.357-3.362 3.361h-3.363zM23.584 11.779c-0.005 1.855-1.509 3.358-3.364 3.361h-0c-1.854-0.005-3.355-1.507-3.36-3.361v-8.416c0.004-1.855 1.506-3.357 3.36-3.363h0c1.856 0.004 3.359 1.507 3.364 3.362v0zM20.22 25.275c1.856 0.004 3.359 1.507 3.364 3.362v0c-0.005 1.856-1.508 3.359-3.364 3.363h-0c-1.854-0.005-3.356-1.508-3.36-3.362v-3.363zM20.22 23.584c-1.855-0.005-3.357-1.509-3.36-3.364v-0c0.005-1.854 1.506-3.355 3.36-3.36h8.418c1.855 0.004 3.357 1.506 3.363 3.36v0c-0.004 1.856-1.507 3.359-3.362 3.364h-0z"></path>
</symbol>
<symbol id="i-visualstudiocode" viewBox="0 0 32 32">
<path fill="#007acc" style="fill: var(--color9, #007acc)" d="M30.867 3.449l-6.587-3.169c-0.253-0.124-0.55-0.197-0.864-0.197-0.55 0-1.049 0.223-1.409 0.584v0l-12.613 11.507-5.493-4.171c-0.221-0.169-0.501-0.271-0.805-0.271-0.346 0-0.661 0.132-0.897 0.348l-1.762 1.602c-0.269 0.245-0.436 0.596-0.436 0.987s0.167 0.741 0.434 0.984l0.001 0.001 4.764 4.347-4.764 4.347c-0.268 0.245-0.435 0.596-0.435 0.985s0.168 0.742 0.435 0.986l0.001 0.001 1.764 1.601c0.236 0.215 0.551 0.347 0.896 0.347 0.304 0 0.584-0.102 0.808-0.273l-0.003 0.002 5.493-4.171 12.613 11.507c0.36 0.361 0.858 0.584 1.408 0.584 0.314 0 0.611-0.073 0.876-0.203l-0.012 0.005 6.589-3.169c0.675-0.331 1.131-1.013 1.131-1.801 0-0.001 0-0.001 0-0.002v0-21.495c0-0 0-0 0-0 0-0.789-0.457-1.472-1.122-1.797l-0.012-0.005zM24.005 23.264l-9.571-7.264 9.571-7.264z"></path>
</symbol>
<symbol id="i-wordpress" viewBox="0 0 32 32">
<path fill="#21759b" style="fill: var(--color10, #21759b)" d="M28.625 9.1c1.12 2.049 1.757 4.4 1.757 6.9 0 5.305-2.875 9.941-7.151 12.433l4.393-12.703c0.82-2.053 1.093-3.695 1.093-5.152 0-0.54-0.035-1.040-0.093-1.48zM17.984 9.239c0.863-0.040 1.643-0.14 1.643-0.14 0.776-0.1 0.685-1.24-0.089-1.199 0 0-2.34 0.18-3.84 0.18-1.419 0-3.8-0.2-3.8-0.2-0.78-0.040-0.881 1.14-0.1 1.18 0 0 0.72 0.081 1.5 0.12l2.24 6.14-3.16 9.44-5.239-15.56c0.865-0.040 1.645-0.133 1.645-0.133 0.78-0.1 0.688-1.24-0.087-1.195 0 0-2.328 0.184-3.832 0.184-0.267 0-0.584-0.011-0.92-0.020 2.603-3.836 7.035-6.416 12.055-6.416 3.745 0 7.153 1.429 9.715 3.777-0.061-0.004-0.121-0.012-0.188-0.012-1.413 0-2.416 1.231-2.416 2.552 0 1.187 0.684 2.191 1.413 3.375 0.548 0.96 1.187 2.191 1.187 3.969 0 1.22-0.472 2.659-1.095 4.639l-1.433 4.78-5.2-15.48zM16 30.379c-1.412 0-2.775-0.204-4.064-0.583l4.316-12.541 4.42 12.116c0.032 0.071 0.067 0.135 0.104 0.199-1.493 0.524-3.1 0.812-4.776 0.812zM1.615 16c0-2.085 0.448-4.067 1.247-5.853l6.859 18.799c-4.795-2.332-8.104-7.251-8.105-12.945zM16 0c-8.82 0-16 7.18-16 16s7.18 16 16 16 16-7.18 16-16-7.18-16-16-16z"></path>
</symbol>
<symbol id="i-zoom" viewBox="0 0 32 32">
<path fill="#2d8cff" style="fill: var(--color11, #2d8cff)" d="M6.116 18.173l-0.36-0.016h-3.236l4.313-4.313-0.017-0.36c-0.014-0.579-0.481-1.046-1.059-1.060l-0.001-0-0.36-0.017h-5.391l0.019 0.36c0.045 0.584 0.471 1.027 1.059 1.060l0.36 0.017h3.237l-4.316 4.313 0.019 0.359c0.020 0.577 0.483 1.040 1.060 1.061l0.36 0.017h5.392l-0.019-0.36c-0.048-0.591-0.467-1.023-1.060-1.061zM10.432 12.407h-0.005c-1.983 0.002-3.591 1.61-3.591 3.593s1.609 3.593 3.593 3.593 3.593-1.609 3.593-3.593c0-1.984-1.607-3.592-3.591-3.593h-0zM11.953 17.525c-0.394 0.413-0.948 0.67-1.563 0.67-1.191 0-2.157-0.966-2.157-2.157 0-0.614 0.257-1.169 0.669-1.562l0.001-0.001c0.386-0.368 0.911-0.595 1.488-0.595 1.191 0 2.157 0.966 2.157 2.157 0 0.577-0.226 1.101-0.595 1.488l0.001-0.001zM29.116 12.408c-0.856 0.001-1.624 0.375-2.151 0.969l-0.003 0.003c-0.528-0.599-1.298-0.975-2.155-0.975-0.001 0-0.002 0-0.003 0h0c-0.001 0-0.003 0-0.004 0-0.6 0-1.156 0.184-1.616 0.5l0.010-0.006c-0.28-0.311-0.907-0.493-1.264-0.493v7.189l0.36-0.017c0.6-0.040 1.036-0.465 1.060-1.061l0.017-0.36v-2.516l0.019-0.36c0.013-0.269 0.053-0.509 0.176-0.72 0.253-0.432 0.715-0.717 1.244-0.717 0.265 0 0.514 0.072 0.727 0.197l-0.007-0.004c0.218 0.128 0.395 0.305 0.519 0.516l0.004 0.007c0.124 0.213 0.16 0.452 0.176 0.72l0.019 0.361v2.516l0.017 0.359c0.036 0.587 0.467 1.024 1.060 1.061l0.36 0.017v-3.953l0.016-0.36c0.013-0.267 0.053-0.512 0.179-0.724 0.399-0.685 1.279-0.92 1.964-0.52 0.218 0.128 0.395 0.305 0.519 0.517l0.004 0.007c0.123 0.213 0.16 0.457 0.175 0.72l0.019 0.36v2.516l0.017 0.359c0.037 0.591 0.467 1.027 1.061 1.061l0.36 0.017v-4.313c-0.002-1.587-1.289-2.872-2.876-2.872-0.001 0-0.002 0-0.003 0h0zM15.436 13.459c-0.69 0.656-1.119 1.581-1.119 2.606 0 1.985 1.609 3.595 3.595 3.595 1.024 0 1.948-0.428 2.603-1.115l0.001-0.001c0.613-0.643 0.99-1.517 0.99-2.478 0-1.985-1.609-3.595-3.595-3.595-0.96 0-1.832 0.376-2.477 0.99l0.002-0.001zM19.501 17.525c-0.392 0.402-0.94 0.652-1.545 0.652-1.191 0-2.157-0.966-2.157-2.157 0-0.606 0.25-1.153 0.652-1.545l0-0c0.388-0.379 0.92-0.612 1.505-0.612 1.191 0 2.157 0.966 2.157 2.157 0 0.586-0.233 1.117-0.612 1.506l0-0z"></path>
</symbol>
</defs>
</svg>
